<?xml version="1.0" standalone="no"?>
<!DOCTYPE svg PUBLIC "-//W3C//DTD SVG 20010904//EN"
 "http://www.w3.org/TR/2001/REC-SVG-20010904/DTD/svg10.dtd">
<svg version="1.0" xmlns="http://www.w3.org/2000/svg"
 width="1739.000000pt" height="1739.000000pt" viewBox="0 0 1739.000000 1739.000000"
 preserveAspectRatio="xMidYMid meet">
<metadata>
Created by potrace 1.11, written by Peter Selinger 2001-2013
</metadata>
<g transform="translate(0.000000,1739.000000) scale(0.100000,-0.100000)"
fill="#000000" stroke="none">
<path d="M7165 15727 c-60 -22 -112 -43 -115 -46 -3 -3 -12 -7 -20 -8 -34 -6
-149 -60 -142 -68 4 -4 1 -5 -5 -1 -7 4 -23 2 -35 -5 -16 -9 -164 -12 -553
-13 l-530 -1 -55 -26 c-30 -14 -76 -48 -102 -75 -103 -108 -340 -360 -418
-444 -31 -34 -223 -238 -360 -383 -36 -38 -85 -90 -110 -117 -86 -90 -275
-293 -299 -319 -13 -14 -60 -65 -105 -112 -160 -170 -175 -187 -196 -227 -34
-65 -42 -145 -21 -219 9 -34 143 -245 438 -691 l35 -53 -16 -59 c-10 -33 -14
-65 -11 -70 3 -6 2 -10 -3 -10 -4 0 -14 -28 -21 -62 -6 -35 -14 -74 -17 -88
-5 -25 -13 -74 -19 -120 -2 -14 -4 -25 -5 -25 -3 0 -9 -37 -14 -85 -3 -25 -8
-61 -11 -80 -13 -87 -17 -164 -22 -433 -5 -270 -4 -290 13 -310 15 -17 15 -19
2 -9 -18 14 -18 5 -2 -123 2 -22 6 -58 8 -80 6 -58 16 -137 21 -161 3 -12 7
-39 10 -60 4 -21 13 -73 22 -114 8 -41 17 -88 20 -105 3 -16 9 -31 13 -33 5
-2 7 -9 5 -15 -3 -7 7 -52 20 -102 14 -49 27 -94 28 -100 14 -54 82 -251 88
-253 4 -2 5 -10 2 -19 -5 -12 -3 -14 7 -8 9 5 11 4 6 -3 -4 -6 7 -43 24 -83
16 -39 30 -78 30 -85 0 -8 7 -17 15 -20 8 -4 13 -10 10 -14 -9 -14 103 -242
115 -235 6 3 7 0 4 -9 -3 -9 11 -46 32 -83 22 -38 45 -80 53 -95 7 -16 18 -28
23 -28 5 0 6 -4 3 -10 -3 -5 -1 -10 4 -10 6 0 10 -4 8 -8 -4 -15 258 -403 293
-432 3 -3 24 -29 47 -57 171 -219 457 -497 689 -670 16 -12 57 -42 90 -67 34
-25 67 -46 73 -46 6 0 11 -4 11 -9 0 -9 79 -60 90 -58 3 0 18 -11 34 -26 16
-15 35 -27 42 -27 8 0 14 -4 14 -9 0 -5 11 -12 24 -15 14 -3 31 -13 39 -21 8
-8 43 -29 78 -46 35 -18 66 -35 69 -39 12 -17 284 -141 297 -136 8 3 12 2 9
-3 -3 -5 0 -11 7 -14 98 -42 192 -75 199 -71 4 3 8 0 8 -6 0 -7 7 -9 16 -6 8
3 13 2 10 -2 -2 -4 44 -22 102 -41 59 -18 116 -36 127 -41 43 -17 147 -40 156
-35 5 4 9 2 9 -3 0 -5 31 -16 69 -25 83 -20 84 -20 76 -4 -4 6 0 5 7 -4 7 -9
36 -20 63 -23 28 -4 59 -9 70 -12 11 -3 31 -6 45 -8 60 -8 99 -19 103 -30 3
-7 71 -112 151 -233 156 -236 188 -269 280 -294 110 -30 243 10 309 94 24 30
274 407 282 424 1 2 48 11 104 19 25 3 57 7 70 10 13 2 45 6 70 10 25 4 55 9
66 11 11 2 36 7 55 10 19 3 39 9 44 13 5 5 15 6 24 3 8 -4 13 -2 9 3 -3 5 7 9
21 8 15 -1 36 2 48 7 11 4 34 10 50 13 41 7 192 51 306 88 67 22 94 35 86 41
-9 6 -8 7 5 3 9 -3 43 4 75 16 31 12 59 23 62 23 3 0 15 6 26 13 12 6 24 8 28
5 3 -3 6 -1 6 5 0 7 7 12 16 12 9 0 28 6 42 14 15 8 78 38 140 67 61 29 112
57 112 61 0 5 4 7 9 3 5 -3 17 3 27 12 10 10 19 17 21 16 10 -8 23 -1 17 9 -5
7 -3 8 5 4 7 -5 20 -2 29 6 9 7 43 27 74 43 32 17 58 33 58 38 0 4 7 7 15 7 7
0 18 8 24 18 5 9 12 15 15 12 7 -7 226 139 226 151 0 5 6 9 14 9 7 0 27 14 45
30 17 17 31 28 31 25 0 -6 42 29 82 67 15 14 28 24 28 20 0 -3 11 5 25 18 13
12 22 27 18 33 -3 6 -1 7 6 3 12 -8 108 72 103 87 -1 4 2 6 7 5 14 -5 122 103
115 114 -4 6 -2 8 3 5 9 -6 41 24 162 150 46 48 89 108 84 116 -3 6 -2 7 4 4
12 -7 97 92 173 203 8 12 32 45 53 73 21 29 52 75 70 102 17 28 34 52 37 55 4
3 13 20 21 38 8 17 17 32 20 32 4 0 14 15 23 32 9 18 25 47 35 63 10 17 41 74
69 127 28 54 56 106 62 115 5 10 27 58 49 108 30 66 37 93 29 102 -8 10 -7 12
3 8 16 -6 43 51 32 68 -3 6 -1 7 5 3 11 -7 16 7 15 41 -1 7 3 11 7 8 5 -3 12
9 15 27 4 18 12 39 17 45 6 7 7 21 4 30 -4 10 -4 14 0 10 10 -9 56 124 49 141
-2 7 0 10 5 7 6 -3 10 3 10 15 0 13 -4 19 -12 14 -7 -4 -8 -3 -4 5 4 6 12 9
17 6 5 -4 9 -3 10 2 0 4 3 19 6 33 3 14 6 35 7 47 1 11 4 20 7 18 8 -6 39 130
34 154 -2 12 0 19 6 16 5 -4 9 -3 10 2 0 4 2 19 5 33 2 14 6 36 8 50 2 14 9
47 16 73 7 26 10 51 6 54 -3 3 -2 11 3 17 10 11 22 98 24 173 1 24 5 43 8 43
3 0 5 10 4 22 -1 12 2 39 5 60 5 25 4 38 -4 38 -8 0 -8 2 1 8 15 9 23 158 9
173 -8 9 -8 10 2 5 10 -6 11 41 7 231 -3 131 -6 246 -6 256 0 10 -5 15 -11 11
-7 -5 -7 -1 -1 11 6 10 7 32 3 51 -4 19 -6 34 -4 34 3 0 0 10 -7 21 -6 12 -7
19 -1 16 5 -4 7 4 4 18 -2 15 -9 22 -16 18 -7 -4 -6 -1 1 9 7 8 11 17 9 19 -3
2 -7 31 -11 64 -4 33 -11 76 -15 95 -5 19 -11 51 -14 70 -4 31 -14 78 -30 150
-3 14 -11 48 -17 77 -7 29 -15 51 -18 49 -3 -2 -6 12 -7 31 0 19 -5 38 -10 41
-5 4 -11 23 -12 42 -2 19 -8 40 -14 47 -11 14 -1 30 218 363 151 229 164 253
168 325 6 100 -27 172 -121 271 -52 55 -290 308 -337 358 -16 17 -83 89 -150
160 -66 71 -132 140 -145 155 -13 14 -56 60 -95 101 -39 42 -132 140 -206 219
-74 80 -148 159 -165 176 -16 18 -84 89 -150 160 -180 191 -195 206 -255 234
l-55 26 -2130 2 c-1172 1 -2137 2 -2145 3 -8 1 66 41 165 90 99 49 176 89 170
89 -5 -1 -59 -19 -120 -42z m3887 -756 c8 -11 54 -62 103 -113 50 -52 142
-150 206 -219 65 -68 138 -146 164 -174 26 -27 77 -81 113 -120 36 -38 100
-106 141 -150 42 -45 133 -141 202 -215 70 -74 154 -164 187 -199 50 -54 59
-68 51 -84 -6 -10 -81 -125 -166 -255 -86 -130 -202 -307 -258 -392 -241 -367
-308 -470 -483 -735 -101 -154 -231 -352 -289 -440 -58 -88 -169 -257 -246
-375 -78 -119 -328 -499 -555 -845 -228 -347 -462 -704 -522 -795 -60 -91
-177 -268 -260 -395 -479 -728 -614 -930 -628 -941 -9 -7 -21 -10 -26 -6 -5 3
-55 7 -110 8 -101 2 -248 13 -254 19 -2 1 79 124 180 271 174 254 502 736 723
1062 132 195 423 619 630 922 364 532 548 806 560 833 61 146 -21 330 -173
387 -47 18 -78 20 -297 20 -135 0 -245 2 -245 5 0 2 66 97 148 211 81 113 165
232 187 264 44 63 283 397 461 645 63 88 122 171 132 185 9 14 67 95 127 180
61 85 114 161 119 168 5 8 -13 38 -51 84 -96 118 -340 359 -362 357 -3 0 -33
-39 -66 -86 -33 -48 -243 -343 -467 -657 -224 -314 -412 -578 -418 -586 -6 -8
-154 -216 -329 -462 -175 -246 -326 -463 -335 -482 -68 -143 -2 -323 144 -394
50 -23 109 -28 343 -28 130 1 237 -1 237 -3 0 -2 -41 -62 -90 -135 -114 -165
-374 -545 -534 -781 -133 -196 -488 -715 -571 -835 -28 -41 -99 -145 -157
-230 -57 -85 -124 -182 -147 -215 -23 -33 -121 -176 -217 -317 -97 -142 -179
-260 -183 -262 -7 -5 -76 14 -136 37 -16 6 -34 12 -40 13 -5 1 -48 16 -94 33
-47 18 -91 29 -98 27 -8 -3 -11 -2 -8 3 3 5 -5 13 -17 17 -31 9 -115 47 -224
100 -50 24 -96 44 -102 44 -5 0 -12 3 -14 8 -1 4 -30 21 -63 37 -32 17 -65 36
-73 43 -7 7 -18 10 -23 7 -5 -4 -9 -2 -9 4 0 5 -11 16 -24 23 -49 26 -141 82
-146 88 -11 14 -106 73 -117 73 -7 0 -11 3 -10 6 1 3 -2 7 -6 8 -5 1 -16 10
-25 20 -34 36 -140 112 -147 105 -5 -4 -5 -1 -1 6 4 6 4 12 -1 12 -4 0 -30 20
-58 45 -27 24 -53 41 -57 39 -5 -3 -7 -2 -6 3 5 13 -63 73 -75 66 -5 -3 -7 -2
-4 4 3 5 -15 30 -41 55 -76 73 -173 178 -241 258 -35 41 -67 74 -73 72 -5 -1
-7 2 -4 7 4 5 0 15 -7 23 -7 7 -23 28 -36 46 -12 18 -27 29 -33 26 -6 -4 -8
-3 -5 3 8 12 -100 169 -113 166 -5 -2 -7 3 -4 10 2 7 -7 26 -21 43 -14 16 -25
35 -25 42 0 6 -4 12 -9 12 -5 0 -11 8 -14 18 -4 9 -17 35 -31 57 -40 64 -196
366 -196 379 0 3 -15 37 -33 78 -19 40 -44 102 -56 138 -13 36 -27 74 -31 85
-10 23 -40 112 -45 135 -10 40 -47 177 -52 190 -7 18 -9 25 -17 65 -3 17 -14
75 -26 130 -11 55 -22 118 -25 140 -5 39 -10 71 -19 130 -10 59 -17 152 -22
280 l-5 130 173 -262 c95 -145 286 -434 423 -643 138 -209 305 -464 373 -567
116 -176 122 -188 103 -197 -21 -9 -25 -22 -21 -61 2 -26 102 -232 152 -313
21 -34 38 -66 38 -71 0 -5 3 -11 8 -13 4 -1 33 -42 64 -90 187 -284 448 -499
854 -702 143 -71 174 -81 200 -62 29 22 23 82 -24 221 -61 183 -74 231 -79
305 -2 38 -14 89 -30 125 -14 33 -36 105 -49 159 -26 110 -42 151 -80 196 -32
37 -102 86 -135 95 -17 4 -49 44 -106 130 -78 118 -81 124 -55 119 96 -17 120
-19 149 -13 102 21 128 84 110 269 -16 160 -25 280 -32 420 -3 58 -7 139 -10
181 -4 87 -20 132 -61 173 -63 63 -81 66 -436 73 -178 3 -357 7 -398 7 l-75 1
-62 92 c-34 51 -64 96 -66 100 -3 5 119 9 272 10 486 2 635 6 667 15 49 13
111 64 134 108 21 41 22 50 35 295 10 192 15 279 20 315 8 66 19 215 18 253
-3 87 -81 145 -180 133 -26 -3 -104 -17 -173 -30 -69 -14 -136 -27 -150 -30
-178 -33 -436 -102 -497 -132 -56 -27 -134 -98 -158 -143 -14 -27 -38 -122
-49 -191 -3 -19 -12 -78 -20 -130 -8 -52 -18 -126 -22 -165 -4 -38 -8 -79 -10
-90 -1 -11 -3 -24 -3 -30 -1 -9 -39 46 -323 480 -62 94 -157 238 -211 320 -55
83 -117 177 -137 210 l-37 60 19 65 c10 36 20 74 22 85 2 11 12 41 21 68 9 26
13 53 9 59 -5 7 -3 8 6 3 10 -6 12 -3 8 13 -4 12 -2 20 3 16 9 -5 14 15 11 49
-1 10 3 15 8 12 6 -3 11 1 11 9 2 21 3 27 16 56 6 14 21 50 33 80 20 53 43
105 62 143 5 10 6 23 2 30 -4 7 -3 9 1 4 11 -10 78 130 69 145 -4 7 -3 8 4 4
8 -4 16 3 22 20 6 15 19 39 30 54 11 15 17 29 14 32 -2 3 2 11 11 18 8 7 15
16 15 21 0 5 12 28 27 52 14 23 38 60 51 82 53 85 78 122 127 190 27 39 58 80
68 92 11 11 20 25 21 29 0 5 15 23 31 40 53 56 66 75 59 86 -4 6 -3 8 3 5 10
-6 110 101 106 115 -2 4 3 7 10 6 6 -2 11 3 9 10 -1 8 1 11 6 9 4 -3 30 19 56
49 l49 54 2453 0 c2406 0 2453 0 2466 -19z m-5198 -259 c3 -5 -1 -9 -9 -9 -8
0 -15 4 -15 9 0 4 4 8 9 8 6 0 12 -4 15 -8z m-852 -780 c-75 -124 -80 -132
-125 -224 -23 -48 -45 -88 -48 -88 -7 0 -57 72 -61 88 -2 5 56 71 127 147 72
75 132 141 133 146 2 5 8 9 12 9 5 0 -12 -35 -38 -78z m368 57 c0 -5 -4 -9 -8
-9 -5 0 -9 7 -9 15 0 8 4 12 9 9 4 -3 8 -9 8 -15z m7140 -1105 c0 -17 3 -34 7
-38 4 -4 8 -23 9 -44 1 -20 4 -56 8 -80 6 -46 16 -179 20 -273 1 -30 6 -60 10
-67 4 -7 4 -12 -1 -12 -10 0 -10 -71 1 -88 4 -7 3 -12 -1 -12 -10 0 -10 -61 1
-78 4 -7 3 -12 -1 -12 -5 0 -9 -17 -9 -37 -2 -94 -22 -311 -37 -398 -3 -16 -8
-50 -12 -75 -20 -138 -128 -554 -156 -603 -5 -10 -7 -22 -4 -27 4 -6 2 -10 -4
-10 -9 0 -25 -51 -21 -66 1 -4 -2 -10 -7 -13 -11 -7 -55 -121 -47 -121 3 0 -2
-7 -11 -16 -9 -9 -14 -23 -11 -31 3 -8 1 -11 -4 -8 -6 3 -10 1 -10 -5 0 -7
-11 -34 -25 -61 -13 -27 -21 -49 -17 -49 4 0 3 -4 -3 -8 -5 -4 -29 -43 -51
-87 -23 -44 -51 -97 -63 -118 -12 -21 -18 -43 -15 -49 4 -6 2 -8 -4 -4 -6 3
-13 -3 -17 -14 -3 -11 -11 -20 -16 -20 -5 0 -9 -9 -9 -19 0 -11 -4 -21 -8 -23
-4 -1 -43 -56 -86 -120 -42 -65 -97 -143 -121 -174 -25 -31 -42 -61 -38 -67 3
-6 1 -7 -5 -3 -6 3 -21 -8 -34 -26 -34 -50 -122 -149 -235 -267 -34 -35 -59
-69 -56 -74 3 -6 2 -7 -4 -4 -5 3 -28 -11 -50 -31 -22 -20 -67 -61 -101 -91
-52 -46 -60 -57 -49 -70 11 -14 10 -14 -6 -2 -15 12 -20 12 -35 -3 -9 -9 -37
-32 -62 -53 -25 -20 -44 -40 -42 -45 1 -5 -2 -7 -7 -4 -7 5 -47 -21 -98 -64
-7 -5 -15 -10 -18 -10 -9 0 -109 -72 -122 -89 -7 -8 -13 -12 -13 -8 0 3 -44
-20 -99 -53 -54 -33 -104 -60 -110 -60 -6 0 -11 -4 -11 -9 0 -5 -11 -12 -25
-15 -16 -4 -23 -11 -19 -18 4 -6 3 -8 -3 -5 -13 8 -135 -52 -128 -63 3 -5 0
-7 -7 -5 -8 3 -50 -11 -93 -30 -44 -20 -89 -40 -100 -44 -11 -5 -37 -16 -58
-25 -21 -9 -44 -16 -52 -16 -8 0 -15 -5 -15 -11 0 -5 -4 -8 -9 -4 -5 3 -12 1
-16 -5 -3 -5 -15 -10 -26 -10 -11 0 -41 -9 -67 -19 -26 -10 -69 -25 -95 -31
-36 -10 -47 -17 -42 -28 4 -12 3 -12 -9 -3 -11 9 -28 8 -77 -6 -35 -9 -66 -20
-69 -23 -3 -3 -14 -5 -25 -4 -11 0 -30 -3 -42 -8 -13 -4 -23 -5 -23 -2 0 4 33
56 73 118 96 144 249 378 424 646 77 118 202 310 278 425 76 116 175 266 220
335 45 69 149 226 230 350 82 124 190 289 242 368 51 78 135 206 186 285 52
78 168 255 258 392 91 138 216 329 279 425 63 96 169 257 235 357 66 101 197
299 290 442 l170 258 12 -51 c7 -28 12 -65 13 -82z m-7707 -609 c-3 -9 -8 -14
-10 -11 -3 3 -2 9 2 15 9 16 15 13 8 -4z m-113 -3 c0 -5 -7 -9 -15 -9 -8 0
-12 4 -9 9 3 4 9 8 15 8 5 0 9 -4 9 -8z m-155 -1082 c-3 -5 -12 -10 -18 -10
-7 0 -6 4 3 10 19 12 23 12 15 0z m7986 -373 c-10 -9 -11 -8 -5 6 3 10 9 15
12 12 3 -3 0 -11 -7 -18z m-7751 -227 c0 -5 -4 -10 -10 -10 -5 0 -10 5 -10 10
0 6 5 10 10 10 6 0 10 -4 10 -10z m365 -220 c3 -6 -1 -7 -9 -4 -18 7 -21 14
-7 14 6 0 13 -4 16 -10z m496 -337 c13 -16 12 -17 -3 -4 -10 7 -18 15 -18 17
0 8 8 3 21 -13z m-670 -150 c13 -16 12 -17 -3 -4 -10 7 -18 15 -18 17 0 8 8 3
21 -13z m129 -209 c0 -8 -19 -13 -24 -6 -3 5 1 9 9 9 8 0 15 -2 15 -3z m6920
-48 c0 -2 -8 -10 -17 -17 -16 -13 -17 -12 -4 4 13 16 21 21 21 13z m-5923 -41
c0 -8 -4 -12 -9 -9 -5 3 -6 10 -3 15 9 13 12 11 12 -6z m4968 -455 c-3 -5 -12
-10 -18 -10 -7 0 -6 4 3 10 19 12 23 12 15 0z m589 -18 c3 -5 -1 -9 -9 -9 -8
0 -12 4 -9 9 3 4 7 8 9 8 2 0 6 -4 9 -8z m-5594 -202 c0 -5 -4 -10 -10 -10 -5
0 -10 5 -10 10 0 6 5 10 10 10 6 0 10 -4 10 -10z m820 -144 c0 -2 -8 -10 -17
-17 -16 -13 -17 -12 -4 4 13 16 21 21 21 13z m3905 -16 c-3 -5 -12 -10 -18
-10 -7 0 -6 4 3 10 19 12 23 12 15 0z m-589 -315 c-1 -8 -5 -17 -8 -21 -5 -4
-4 16 1 34 3 9 9 -1 7 -13z m-245 -12 c13 -16 12 -17 -3 -4 -10 7 -18 15 -18
17 0 8 8 3 21 -13z m124 8 c3 -5 2 -12 -3 -15 -5 -3 -9 1 -9 9 0 17 3 19 12 6z
m-2460 -109 c-3 -3 -11 0 -18 7 -9 10 -8 11 6 5 10 -3 15 -9 12 -12z m955 -46
c0 -2 -8 -10 -17 -17 -16 -13 -17 -12 -4 4 13 16 21 21 21 13z m-879 -193 c13
-16 12 -17 -3 -4 -10 7 -18 15 -18 17 0 8 8 3 21 -13z m-310 -110 c13 -16 12
-17 -3 -4 -10 7 -18 15 -18 17 0 8 8 3 21 -13z"/>
<path d="M8349 14646 c-2 -2 -34 -6 -71 -10 -76 -7 -109 -11 -228 -32 -190
-32 -228 -41 -266 -65 -43 -26 -108 -98 -133 -146 -17 -34 -63 -180 -76 -239
-2 -10 -13 -59 -25 -109 -38 -162 -89 -431 -95 -504 -5 -64 24 -120 79 -148
27 -14 104 -18 186 -9 19 3 78 7 130 11 52 4 111 8 130 10 19 2 96 6 170 10
231 11 259 14 292 31 71 35 113 96 122 175 5 43 19 627 19 799 1 103 -14 150
-59 196 -33 32 -39 34 -103 34 -37 0 -70 -2 -72 -4z"/>
<path d="M8910 14633 c-32 -22 -52 -49 -68 -93 -14 -37 -15 -142 -6 -500 10
-410 12 -445 23 -474 36 -89 105 -135 213 -141 40 -3 117 -7 172 -10 54 -3
146 -8 205 -11 l106 -6 130 137 c249 263 233 243 224 284 -4 20 -11 52 -14 71
-3 19 -8 42 -10 50 -2 8 -7 31 -10 50 -14 87 -88 347 -111 394 -28 56 -91 126
-141 157 -27 17 -136 43 -258 63 -62 9 -111 17 -145 21 -19 3 -71 9 -115 15
-114 14 -167 13 -195 -7z"/>
<path d="M7210 14349 c-96 -47 -299 -160 -324 -180 -6 -5 -42 -30 -81 -56
-273 -181 -496 -453 -691 -843 -60 -122 -69 -164 -39 -186 28 -21 71 -17 175
16 196 63 460 132 630 166 102 20 161 48 216 103 53 53 77 110 109 261 33 153
90 364 145 534 51 157 54 172 39 208 -17 41 -55 36 -179 -23z"/>
<path d="M10027 14380 c-8 -12 -13 -34 -12 -50 2 -26 93 -319 102 -330 2 -2
27 20 55 50 28 30 84 89 125 132 l74 76 -34 21 c-69 42 -243 121 -269 121 -16
0 -33 -8 -41 -20z"/>
<path d="M8117 13173 c-1 0 -60 -4 -132 -8 -71 -4 -152 -8 -180 -10 -27 -2
-90 -6 -139 -10 -107 -7 -173 -33 -218 -83 -60 -69 -69 -105 -84 -342 -11
-169 -12 -208 -19 -407 -7 -194 -7 -204 14 -246 23 -47 76 -91 129 -106 17 -5
183 -9 367 -8 l337 2 65 70 c37 39 107 113 157 166 50 52 102 108 116 123 l24
27 2 338 c2 308 0 342 -16 379 -27 59 -85 110 -134 117 -34 5 -284 4 -289 -2z"/>
<path d="M8985 13170 c-16 -5 -45 -24 -64 -41 -58 -56 -64 -83 -66 -288 l-1
-184 85 90 c48 49 145 152 216 228 72 76 141 148 155 161 13 13 21 26 18 29
-10 10 -312 15 -343 5z"/>
<path d="M7487 11707 c-45 -11 -110 -66 -132 -114 -19 -40 -19 -47 -8 -313 3
-85 6 -165 6 -177 1 -13 4 -23 7 -23 3 0 34 30 69 68 35 37 95 101 135 142
263 278 373 395 384 406 16 16 33 15 -239 17 -103 1 -203 -2 -222 -6z"/>
<path d="M7369 10931 c-8 -47 12 -214 30 -256 41 -90 119 -141 233 -150 40 -3
87 -8 103 -10 39 -5 281 -17 369 -19 l68 -1 74 200 c41 110 77 210 80 222 l6
22 -481 -1 c-265 0 -481 -3 -482 -7z"/>
<path d="M7552 10283 c-35 -7 -90 -68 -98 -108 -6 -32 2 -93 26 -215 5 -25 12
-62 15 -84 3 -21 7 -41 9 -45 2 -3 7 -24 10 -46 4 -22 8 -47 11 -55 2 -8 6
-26 9 -40 11 -66 80 -329 97 -374 10 -28 29 -64 42 -80 l24 -30 22 60 c12 32
49 133 82 224 34 91 65 174 69 185 5 11 36 97 70 190 34 94 65 179 70 190 4
11 18 47 30 80 12 33 26 70 31 83 13 34 6 39 -56 41 -56 2 -130 7 -220 15 -96
10 -220 14 -243 9z"/>
<path d="M10430 6038 c-620 -112 -1087 -611 -1156 -1238 -10 -91 -6 -281 6
-354 6 -33 13 -72 15 -86 10 -59 19 -90 47 -173 121 -354 370 -639 704 -806
55 -27 113 -53 129 -57 17 -4 35 -10 40 -14 16 -12 210 -59 278 -67 133 -16
396 -6 477 17 19 6 48 13 64 16 59 10 212 68 291 109 527 273 819 813 762
1410 -30 309 -171 612 -388 836 -147 151 -276 236 -514 340 -44 19 -205 61
-285 73 -122 20 -343 17 -470 -6z m424 -618 c300 -66 531 -327 572 -647 10
-80 12 -180 3 -228 -4 -22 -10 -56 -13 -75 -22 -141 -102 -295 -209 -403 -167
-168 -406 -240 -668 -203 -49 7 -170 52 -228 83 -152 84 -273 232 -335 409
-148 424 45 889 430 1034 135 50 302 62 448 30z"/>
<path d="M98 6022 l-98 -3 0 -1375 0 -1375 568 2 c584 1 648 4 807 44 362 91
673 343 840 680 109 220 149 397 149 655 0 161 -8 229 -44 372 -106 413 -394
747 -780 901 -167 66 -300 93 -485 97 -179 3 -858 5 -957 2z m1126 -646 c323
-92 492 -359 481 -761 -9 -374 -178 -615 -490 -701 -45 -12 -121 -18 -307 -21
l-248 -5 0 757 0 757 253 -5 c197 -3 265 -8 311 -21z"/>
<path d="M3258 6022 c-9 -2 -18 -9 -21 -15 -2 -7 -38 -106 -80 -222 -176 -488
-340 -942 -402 -1115 -69 -188 -84 -231 -220 -610 -84 -233 -160 -444 -181
-500 -7 -19 -33 -92 -58 -162 l-46 -128 343 0 342 0 90 251 c50 138 95 254
100 257 6 4 231 7 502 7 l492 0 26 -75 c14 -41 30 -84 34 -95 10 -21 53 -142
97 -267 l27 -78 343 0 343 0 -35 98 c-60 164 -373 1030 -419 1157 -23 66 -66
185 -94 265 -29 80 -59 162 -67 183 -8 21 -66 183 -130 360 -163 452 -192 533
-220 611 -13 38 -26 71 -27 73 -5 4 -717 9 -739 5z m468 -1148 c158 -440 164
-458 159 -462 -3 -4 -438 -6 -519 -3 -13 1 -17 6 -13 19 6 19 37 105 95 267
125 347 162 453 162 466 1 28 19 -17 116 -287z"/>
<path d="M5208 6022 l-28 -3 0 -1375 0 -1374 330 0 330 0 0 1375 0 1375 -47 1
c-217 3 -563 3 -585 1z"/>
<path d="M6117 6022 c-16 -3 -17 -101 -17 -1378 l0 -1374 330 0 330 0 0 791 0
792 291 -459 c161 -253 322 -507 358 -566 l66 -107 124 2 124 2 194 305 c106
168 206 325 222 350 16 25 90 142 165 259 l136 215 0 -792 0 -792 330 0 330 0
0 1375 0 1375 -27 1 c-110 2 -635 0 -637 -2 -1 -2 -67 -104 -147 -226 -79
-123 -178 -275 -219 -338 -41 -63 -163 -250 -270 -415 -107 -165 -197 -300
-200 -300 -4 0 -492 741 -525 797 -13 22 -74 116 -206 318 -55 83 -100 154
-102 158 -2 8 -613 16 -650 9z"/>
<path d="M12299 6022 l-55 -3 0 -1375 0 -1374 330 2 331 3 -1 821 0 821 21
-26 c12 -14 55 -73 97 -131 101 -142 530 -739 827 -1152 l243 -338 329 0 329
0 0 1375 0 1375 -97 1 c-155 1 -370 1 -470 0 l-92 -1 2 -820 c1 -451 -1 -820
-4 -820 -3 0 -100 131 -215 292 -115 160 -316 440 -447 622 -131 182 -301 420
-379 529 -120 167 -146 197 -168 197 -14 0 -137 1 -275 3 -137 1 -275 1 -306
-1z"/>
<path d="M15129 6022 l-107 -3 0 -1375 0 -1375 577 2 c637 2 687 5 879 68 484
159 829 581 899 1101 10 73 10 329 0 409 -18 142 -75 329 -141 458 -48 97
-151 238 -230 318 -233 236 -518 367 -851 391 -86 6 -851 11 -1026 6z m1116
-645 c176 -51 325 -170 397 -317 28 -58 58 -142 60 -167 0 -1 6 -27 13 -57 13
-57 14 -324 1 -381 -4 -16 -12 -50 -17 -75 -15 -65 -80 -197 -126 -255 -84
-106 -222 -187 -378 -221 -16 -4 -138 -9 -271 -11 l-241 -5 0 757 0 756 251
-3 c197 -4 264 -8 311 -21z"/>
<path d="M9798 2520 c-62 -23 -104 -54 -138 -102 -41 -57 -53 -100 -45 -164
12 -102 97 -177 285 -252 83 -33 135 -65 156 -97 24 -36 5 -99 -35 -120 -99
-51 -208 -11 -255 93 l-18 39 -79 -21 c-55 -14 -79 -25 -79 -36 1 -31 41 -101
85 -149 54 -57 121 -89 209 -99 217 -25 384 104 371 286 -9 120 -90 190 -339
293 -109 44 -146 110 -91 164 13 14 30 26 37 26 7 1 24 3 38 5 48 6 93 -9 132
-44 21 -19 38 -39 38 -46 1 -34 16 -38 81 -21 35 10 71 18 79 20 18 3 16 15
-11 72 -27 56 -82 108 -149 141 -70 34 -197 40 -272 12z"/>
<path d="M11569 2519 c-101 -29 -199 -111 -248 -207 -46 -88 -63 -264 -37
-376 52 -218 206 -339 425 -332 122 4 189 31 267 110 98 99 137 202 136 361
-2 228 -130 408 -322 450 -63 14 -164 11 -221 -6z m229 -173 c67 -36 106 -91
127 -181 24 -103 -1 -241 -56 -308 -79 -96 -251 -106 -335 -20 -44 46 -75 124
-78 198 -10 215 90 341 262 329 29 -2 65 -10 80 -18z"/>
<path d="M13210 2520 c-4 -3 -8 -206 -8 -453 l0 -447 290 2 291 3 -1 55 c0 30
-1 67 -1 81 l-1 27 -196 0 c-108 1 -198 3 -201 6 -3 2 -6 168 -6 367 l-2 363
-78 0 c-44 1 -83 -1 -87 -4z"/>
<path d="M16654 2521 c-2 -2 -4 -206 -4 -453 l0 -448 84 0 c58 0 85 4 88 13 3
6 4 76 4 155 l-1 143 64 -3 64 -3 49 -90 c27 -49 63 -118 81 -152 l31 -63 98
0 c54 0 98 3 98 6 0 4 -13 29 -30 56 -16 26 -30 50 -30 52 0 2 -29 54 -64 116
l-65 113 45 30 c75 49 114 129 114 233 0 70 -26 144 -64 186 -82 90 -143 108
-380 111 -98 1 -180 0 -182 -2z m368 -176 c49 -20 72 -59 72 -122 0 -58 -22
-99 -66 -120 -26 -13 -177 -21 -194 -11 -7 5 -12 214 -5 261 2 13 157 8 193
-8z"/>
<path d="M15079 2493 c-50 -128 -319 -862 -319 -869 0 -2 42 -4 93 -4 l92 0
29 85 29 85 176 0 177 0 28 -85 28 -85 94 0 94 0 -31 83 c-17 45 -34 93 -39
107 -14 43 -140 384 -149 405 -5 11 -23 58 -39 105 -17 47 -41 111 -52 143
l-21 57 -90 0 c-88 0 -90 0 -100 -27z m161 -362 c32 -94 58 -172 57 -172 -1
-1 -55 -3 -120 -3 -79 -2 -117 1 -115 9 12 43 114 343 116 340 2 -1 29 -80 62
-174z"/>
</g>
</svg>
