<?xml version="1.0" encoding="utf-8"?>
<!-- Generator: Adobe Illustrator 23.0.0, SVG Export Plug-In . SVG Version: 6.00 Build 0)  -->
<svg version="1.1" xmlns="http://www.w3.org/2000/svg" xmlns:xlink="http://www.w3.org/1999/xlink" x="0px" y="0px"
	 viewBox="0 0 718.6 235.8" style="enable-background:new 0 0 718.6 235.8;" xml:space="preserve">
<style type="text/css">
	.st0{clip-path:url(#SVGID_2_);fill-rule:evenodd;clip-rule:evenodd;fill:#FFFFFF;}
	.st1{display:none;fill-rule:evenodd;clip-rule:evenodd;fill:#FFFFFF;}
	.st2{fill:#FFCC00;}
	.st3{fill:#FFFFFF;}
	.st4{filter:url(#Adobe_OpacityMaskFilter);}
	.st5{fill:url(#SVGID_4_);}
	.st6{mask:url(#SVGID_3_);}
	.st7{filter:url(#Adobe_OpacityMaskFilter_1_);}
	.st8{fill:url(#SVGID_6_);}
	.st9{mask:url(#SVGID_5_);}
	.st10{filter:url(#Adobe_OpacityMaskFilter_2_);}
	.st11{fill:url(#SVGID_8_);}
	.st12{mask:url(#SVGID_7_);}
	.st13{filter:url(#Adobe_OpacityMaskFilter_3_);}
	.st14{fill:url(#SVGID_10_);}
	.st15{mask:url(#SVGID_9_);}
	.st16{filter:url(#Adobe_OpacityMaskFilter_4_);}
	.st17{fill:url(#SVGID_12_);}
	.st18{mask:url(#SVGID_11_);}
	.st19{filter:url(#Adobe_OpacityMaskFilter_5_);}
	.st20{fill:url(#SVGID_14_);}
	.st21{mask:url(#SVGID_13_);}
	.st22{filter:url(#Adobe_OpacityMaskFilter_6_);}
	.st23{fill:url(#SVGID_16_);}
	.st24{mask:url(#SVGID_15_);}
	.st25{opacity:0.9;fill-rule:evenodd;clip-rule:evenodd;fill:#FFCC00;}
</style>
<g id="Layer_1">
	<g>
		<g>
			<defs>
				<path id="SVGID_1_" d="M173.7,58.9c-25.1,26.6-50.3,53.2-75.4,79.8c1.1,0,2.2,0,3.3,0c7.8,0,15.5,0,23.3,0
					c-5.3,14.4-10.6,28.8-15.9,43.2c-3.5,0.5-8.7,0.7-14.5-1.1c-15.2-4.6-22.5-19.3-27.3-29.2c-6.8-14.1-22-45.6-6.1-72.9
					C71.9,60.1,90.8,54.2,111,47.8c12.3-3.8,42-13.2,56.7,1.4C171,52.5,172.8,56.3,173.7,58.9z"/>
			</defs>
			<clipPath id="SVGID_2_">
				<use xlink:href="#SVGID_1_"  style="overflow:visible;"/>
			</clipPath>
			<path class="st0" d="M176.1,151.9c5.9-1.2,11.9-2.7,17.7-4.6c2.7-0.9,4.2-0.1,3.3,2c-2.1,4.8-4.8,9.5-8.4,14.1
				c-1.7,2.2-5,5.4-7.2,7c-4.6,3.5-9.4,6.1-14.1,8.2c-2.1,0.9-2.8-0.6-1.8-3.3c2.1-5.9,3.6-11.8,4.9-17.8
				C171,154.9,173.5,152.4,176.1,151.9 M142,155.4c5.9-0.2,11.8-0.6,17.8-1.2c2.6-0.2,4.5,1.6,4.1,4.3c-1,6.1-2.2,12.2-4,18.3
				c-0.8,2.7-3.3,5.5-5.4,5.9c-4.7,1-9.4,1.7-14.1,2.1c-2.1,0.2-3.7-2.2-3.6-5c0.2-6.4,0.3-12.8,0.4-19.2
				C137.2,157.8,139.4,155.5,142,155.4z M107.9,154.2c5.9,0.6,11.8,1,17.7,1.2c2.6,0.1,4.8,2.4,4.9,5.2c0.1,6.4,0.3,12.8,0.4,19.2
				c0.1,2.8-1.5,5.2-3.6,5c-4.7-0.4-9.4-1.1-14.1-2.1c-2.1-0.4-4.6-3.2-5.4-5.9c-1.7-6.1-3-12.2-4-18.3
				C103.3,155.9,105.2,154,107.9,154.2z M73.7,147.2c5.9,2,11.8,3.5,17.7,4.6c2.6,0.5,5.1,3,5.7,5.6c1.2,5.9,2.7,11.9,4.8,17.8
				c1,2.7,0.2,4.2-1.8,3.3c-4.7-2.1-9.5-4.8-14.1-8.2c-2.2-1.6-5.5-4.8-7.2-7c-3.6-4.6-6.2-9.4-8.4-14.1
				C69.5,147.2,71,146.3,73.7,147.2z M179.1,119.9c6.3-0.1,12.7-0.2,19-0.4c2.8-0.1,5.1,1.6,5,3.7c-0.4,4.7-1.1,9.4-2.1,14.1
				c-0.5,2.1-3.2,4.6-5.9,5.4c-6,1.7-12.1,2.9-18.1,3.9c-2.7,0.5-4.6-1.5-4.3-4.1c0.6-5.9,1-11.8,1.2-17.8
				C174,122.1,176.3,119.9,179.1,119.9z M142.6,120.1c6.3,0,12.7,0,19-0.1c2.8,0,5.1,2.2,5,4.9c-0.2,6.1-0.5,12.2-1,18.3
				c-0.2,2.7-2.7,5.2-5.4,5.4c-6,0.5-12.1,0.8-18.1,1c-2.7,0.1-4.8-2.3-4.8-5.1c0-6.4,0.1-12.8,0.1-19.2
				C137.5,122.4,139.8,120.1,142.6,120.1z M106,120c6.3,0,12.7,0.1,19,0.1c2.8,0,5.1,2.3,5.1,5.1c0,6.4,0.1,12.8,0.1,19.2
				c0,2.9-2.1,5.2-4.8,5.1c-6-0.2-12.1-0.5-18.1-1c-2.7-0.2-5.1-2.7-5.4-5.4c-0.5-6.1-0.8-12.2-1-18.3
				C100.9,122.2,103.2,120,106,120z M69.5,119.5c6.3,0.2,12.7,0.3,19,0.4c2.8,0,5.1,2.2,5.2,4.8c0.2,5.9,0.6,11.9,1.2,17.8
				c0.3,2.6-1.6,4.5-4.3,4.1c-6.1-1-12.1-2.2-18.1-3.9c-2.7-0.8-5.4-3.2-5.9-5.4c-1-4.7-1.7-9.4-2.1-14.1
				C64.4,121.1,66.7,119.4,69.5,119.5z M177,87.8c6,1,12.1,2.2,18.1,3.9c2.7,0.8,5.5,3.2,5.9,5.3c1,4.7,1.7,9.4,2.1,14.1
				c0.2,2.1-2.2,3.7-5,3.7c-6.3-0.1-12.7-0.3-19-0.4c-2.8,0-5.1-2.2-5.2-4.8c-0.2-5.9-0.6-11.8-1.2-17.8
				C172.5,89.2,174.3,87.4,177,87.8z M142.2,84.8c6.1,0.2,12.1,0.5,18.1,1c2.7,0.2,5.1,2.7,5.4,5.4c0.5,6.1,0.8,12.2,1,18.3
				c0.1,2.7-2.2,4.9-5,4.9c-6.3,0-12.7-0.1-19-0.1c-2.8,0-5.1-2.3-5.1-5.2c0-6.4-0.1-12.8-0.1-19.2
				C137.3,87.1,139.5,84.7,142.2,84.8z M107.3,85.8c6-0.5,12.1-0.8,18.1-1c2.7-0.1,4.8,2.2,4.8,5.1c0,6.4-0.1,12.8-0.1,19.2
				c0,2.8-2.3,5.2-5.1,5.2c-6.3,0-12.7,0-19,0.1c-2.8,0-5.1-2.2-5.1-4.9c0.2-6.1,0.5-12.2,1-18.3C102.2,88.5,104.7,86,107.3,85.8z
				 M72.5,91.7c6-1.7,12.1-2.9,18.1-3.9c2.7-0.4,4.5,1.4,4.3,4.1c-0.6,5.9-1,11.9-1.2,17.8c-0.1,2.6-2.4,4.8-5.2,4.8
				c-6.3,0.1-12.7,0.2-19,0.4c-2.8,0.1-5.1-1.6-5-3.7c0.4-4.7,1-9.4,2.1-14.1C67,95,69.8,92.5,72.5,91.7z M167.5,55.8
				c4.7,2.1,9.5,4.8,14.1,8.2c2.2,1.6,5.5,4.8,7.2,7c3.6,4.6,6.2,9.4,8.3,14.1c0.9,2.1-0.6,2.9-3.3,2c-5.9-2-11.8-3.5-17.7-4.6
				c-2.6-0.5-5.1-3-5.7-5.6c-1.2-5.9-2.7-11.9-4.8-17.8C164.7,56.4,165.4,54.8,167.5,55.8z M140.3,49.5c4.7,0.4,9.4,1.1,14.1,2.1
				c2.1,0.4,4.7,3.2,5.4,5.9c1.7,6.1,2.9,12.2,3.9,18.3c0.4,2.7-1.4,4.6-4.1,4.3c-5.9-0.6-11.8-0.9-17.8-1.2
				c-2.6-0.1-4.8-2.4-4.9-5.2c-0.1-6.4-0.2-12.8-0.4-19.2C136.6,51.7,138.2,49.3,140.3,49.5z M113.2,51.6c4.7-1,9.4-1.7,14.1-2.1
				c2.1-0.2,3.7,2.2,3.6,5c-0.2,6.4-0.3,12.8-0.4,19.2c0,2.8-2.2,5.1-4.9,5.2c-5.9,0.2-11.8,0.6-17.8,1.2c-2.6,0.2-4.5-1.6-4.1-4.3
				c1-6.1,2.2-12.2,4-18.3C108.5,54.8,111.1,52,113.2,51.6z M86,64c4.6-3.4,9.4-6.1,14.1-8.2c2.1-0.9,2.8,0.6,1.8,3.3
				c-2.1,5.9-3.6,11.8-4.8,17.8c-0.5,2.6-3.1,5.1-5.7,5.6c-5.9,1.2-11.9,2.7-17.8,4.6c-2.7,0.9-4.2,0.1-3.2-2
				c2.1-4.7,4.8-9.5,8.4-14.1C80.6,68.8,83.8,65.6,86,64z"/>
		</g>
		<polygon class="st1" points="188.9,42.9 205.4,102.1 213.2,192.6 106.7,188.2 124.9,138.7 98.4,138.7 		"/>
		<path class="st2" d="M309.9,126.4h-8.6V90.1h8.6c8.7,0,16.6,5.3,16.6,18.1C326.4,121.1,318.6,126.4,309.9,126.4 M309.9,75.3h-24.5
			v66h24.5c18.8,0,32.4-14.5,32.4-33S328.7,75.3,309.9,75.3z"/>
		<path class="st2" d="M365.7,114l6.6-18.4l6.6,18.4H365.7z M388.7,141.3h16.4l-23.8-66h-18l-23.8,66h16.4l4.5-12.4h24L388.7,141.3z
			"/>
		<rect x="409.8" y="75.3" class="st2" width="15.8" height="66"/>
		<polygon class="st3" points="488,75.3 467.8,106.2 447.6,75.3 431.8,75.3 431.8,141.3 447.6,141.3 447.6,103.2 464.9,130.5 
			470.7,130.5 488,103.2 488,141.3 503.8,141.3 503.8,75.3 		"/>
		<path class="st3" d="M541.8,127.3c-10.9,0-18.1-8.6-18.1-19.1c0-10.4,7.3-19.1,18.1-19.1c10.9,0,18.1,8.6,18.1,19.1
			C559.9,118.7,552.6,127.3,541.8,127.3 M541.8,142.2c18.9,0,33.9-15.1,33.9-33.9s-15.1-33.9-33.9-33.9c-18.9,0-33.9,15.1-33.9,33.9
			S522.9,142.2,541.8,142.2z"/>
		<polygon class="st3" points="623.6,75.3 623.6,115 595.1,75.3 579.3,75.3 579.3,141.3 595.1,141.3 595.1,101.6 623.6,141.3 
			639.4,141.3 639.4,75.3 		"/>
		<path class="st3" d="M670.4,126.4h-8.6V90.1h8.6c8.7,0,16.6,5.3,16.6,18.1C687,121.1,679.2,126.4,670.4,126.4 M670.4,75.3H646v66
			h24.5c18.8,0,32.4-14.5,32.4-33S689.2,75.3,670.4,75.3z"/>
		<path class="st2" d="M689.2,163.2v6.5h3.3c1.1,0,1.9-0.3,2.5-1c0.6-0.6,0.8-1.4,0.8-2.3s-0.3-1.7-0.8-2.3
			c-0.6-0.6-1.4-0.9-2.5-0.9H689.2z M700.9,180.9h-4.7l-3.9-7.4h-0.2h-2.9v7.4H685v-21.6h7.1c1.3,0,2.4,0.2,3.3,0.5
			c0.9,0.3,1.8,0.8,2.5,1.5c0.7,0.6,1.3,1.4,1.6,2.3c0.4,0.9,0.6,1.9,0.6,3c0,1.5-0.3,2.8-1,3.8c-0.7,1.1-1.6,1.8-2.8,2.4
			L700.9,180.9z M646.8,172.9h5.9l-2-5.8c-0.2-0.5-0.3-0.9-0.3-1.1l-0.3-1c0-0.1-0.1-0.2-0.1-0.4c0-0.2-0.1-0.3-0.1-0.3l-0.1-0.3h0
			l-0.1,0.2c0,0.1-0.1,0.2-0.1,0.3c0,0.1-0.1,0.3-0.1,0.4l-0.3,1c-0.1,0.2-0.2,0.6-0.3,1.1L646.8,172.9z M655.4,180.9l-1.4-4.1h-8.5
			l-1.4,4.1h-4.5l8-21.6h4.3l8,21.6H655.4z M606.5,176.9h9.7v4h-13.9v-21.6h4.2V176.9z M560.3,170L560.3,170
			c-0.1,1.2,0.1,2.2,0.4,3.1c0.3,0.8,0.7,1.6,1.2,2.2c0.5,0.6,1.1,1.1,1.8,1.4c0.7,0.3,1.5,0.5,2.4,0.5c0.9,0,1.7-0.2,2.4-0.5
			c0.7-0.4,1.3-0.8,1.8-1.4c0.5-0.6,0.9-1.4,1.2-2.2c0.3-0.9,0.4-1.9,0.4-3c0-2.3-0.5-4-1.6-5.3c-1.1-1.2-2.5-1.9-4.2-1.9
			c-1.8,0-3.2,0.6-4.2,1.9C560.8,166.1,560.3,167.8,560.3,170z M555.9,170.1L555.9,170.1c0-1.6,0.2-3.2,0.7-4.6
			c0.5-1.4,1.2-2.5,2.1-3.6c0.9-1,2-1.8,3.2-2.3c1.3-0.5,2.6-0.8,4-0.8c1.4,0,2.8,0.3,4,0.8c1.3,0.5,2.3,1.3,3.2,2.3
			c0.9,1,1.6,2.2,2.1,3.6c0.5,1.4,0.8,2.9,0.8,4.6c0,1.7-0.3,3.3-0.8,4.6c-0.5,1.4-1.2,2.6-2.1,3.6c-0.9,1-1.9,1.7-3.2,2.3
			c-1.3,0.5-2.6,0.8-4,0.8c-1.4,0-2.8-0.3-4-0.8c-1.2-0.5-2.3-1.3-3.2-2.3c-0.9-1-1.6-2.2-2.1-3.6
			C556.1,173.4,555.9,171.8,555.9,170.1z M531.3,164.6l-4,1.1l0.1,0c-0.3-1.1-0.8-1.9-1.5-2.4c-0.8-0.5-1.6-0.8-2.4-0.8
			c-0.9,0-1.6,0.2-2.1,0.6c-0.5,0.4-0.8,0.9-0.8,1.6c0,0.4,0.1,0.8,0.4,1.1c0.2,0.3,0.6,0.6,1,0.8c0.4,0.2,0.9,0.5,1.5,0.7
			c0.1,0.1,0.4,0.2,0.8,0.4c0.4,0.2,0.8,0.3,1,0.4c0.8,0.4,1.5,0.7,2.2,1c0.7,0.4,1.4,0.8,2,1.4c0.6,0.5,1.1,1.1,1.5,1.8
			c0.4,0.7,0.6,1.5,0.6,2.4c0,0.9-0.2,1.8-0.6,2.6c-0.4,0.8-0.9,1.5-1.6,2.1c-0.7,0.6-1.5,1.1-2.4,1.4c-1,0.3-2,0.5-3.2,0.5
			c-1.1,0-2.1-0.1-3.1-0.4c-0.9-0.3-1.7-0.7-2.4-1.3c-0.7-0.5-1.3-1.2-1.8-2c-0.5-0.8-0.9-1.6-1.1-2.6l4-1.1
			c0.1,0.5,0.3,0.9,0.5,1.4c0.2,0.5,0.6,0.9,0.9,1.2c0.4,0.4,0.8,0.6,1.3,0.8c0.5,0.2,1.1,0.3,1.7,0.3c1,0,1.8-0.2,2.3-0.7
			c0.6-0.5,0.8-1,0.8-1.8c0-0.5-0.2-0.9-0.5-1.3c-0.3-0.4-0.7-0.7-1.2-0.9c-0.6-0.3-1.1-0.6-1.7-0.8c-0.7-0.2-1.3-0.5-2-0.8l-2-1
			c-0.6-0.3-1.2-0.7-1.8-1.3c-0.5-0.5-0.9-1.1-1.3-1.7c-0.3-0.6-0.5-1.4-0.5-2.3c0-0.8,0.2-1.5,0.6-2.2c0.4-0.7,0.9-1.4,1.5-1.9
			c0.7-0.6,1.5-1,2.3-1.4c0.9-0.4,2-0.5,3.1-0.5c0.9,0,1.8,0.1,2.7,0.4c0.8,0.3,1.6,0.7,2.3,1.2c0.7,0.5,1.3,1.1,1.7,1.8
			C530.8,162.9,531.1,163.7,531.3,164.6z"/>
		<defs>
			<filter id="Adobe_OpacityMaskFilter" filterUnits="userSpaceOnUse" x="285.4" y="75.3" width="56.8" height="66">
				<feColorMatrix  type="matrix" values="1 0 0 0 0  0 1 0 0 0  0 0 1 0 0  0 0 0 1 0"/>
			</filter>
		</defs>
		<mask maskUnits="userSpaceOnUse" x="285.4" y="75.3" width="56.8" height="66" id="SVGID_3_">
			<g class="st4">
				
					<linearGradient id="SVGID_4_" gradientUnits="userSpaceOnUse" x1="225.0681" y1="487.1768" x2="225.0681" y2="403.5468" gradientTransform="matrix(1 0 0 1 88.7556 -290.749)">
					<stop  offset="0" style="stop-color:#FFFFFF"/>
					<stop  offset="1" style="stop-color:#000000"/>
				</linearGradient>
				<rect x="285.4" y="75.3" class="st5" width="56.8" height="66"/>
			</g>
		</mask>
		<path class="st6" d="M309.9,126.4h-8.6V90.1h8.6c8.7,0,16.6,5.3,16.6,18.1C326.4,121.1,318.6,126.4,309.9,126.4 M309.9,75.3h-24.5
			v66h24.5c18.8,0,32.4-14.5,32.4-33S328.7,75.3,309.9,75.3z"/>
		<defs>
			<filter id="Adobe_OpacityMaskFilter_1_" filterUnits="userSpaceOnUse" x="339.4" y="75.3" width="65.7" height="66">
				<feColorMatrix  type="matrix" values="1 0 0 0 0  0 1 0 0 0  0 0 1 0 0  0 0 0 1 0"/>
			</filter>
		</defs>
		<mask maskUnits="userSpaceOnUse" x="339.4" y="75.3" width="65.7" height="66" id="SVGID_5_">
			<g class="st7">
				
					<linearGradient id="SVGID_6_" gradientUnits="userSpaceOnUse" x1="229.4855" y1="487.1768" x2="229.4855" y2="403.5468" gradientTransform="matrix(1 0 0 1 142.7876 -290.749)">
					<stop  offset="0" style="stop-color:#FFFFFF"/>
					<stop  offset="1" style="stop-color:#000000"/>
				</linearGradient>
				<rect x="339.4" y="75.3" class="st8" width="65.7" height="66"/>
			</g>
		</mask>
		<path class="st9" d="M365.7,114l6.6-18.4l6.6,18.4H365.7z M388.7,141.3h16.4l-23.8-66h-18l-23.8,66h16.4l4.5-12.4h24L388.7,141.3z
			"/>
		<defs>
			<filter id="Adobe_OpacityMaskFilter_2_" filterUnits="userSpaceOnUse" x="409.8" y="75.3" width="15.8" height="66">
				<feColorMatrix  type="matrix" values="1 0 0 0 0  0 1 0 0 0  0 0 1 0 0  0 0 0 1 0"/>
			</filter>
		</defs>
		<mask maskUnits="userSpaceOnUse" x="409.8" y="75.3" width="15.8" height="66" id="SVGID_7_">
			<g class="st10">
				
					<linearGradient id="SVGID_8_" gradientUnits="userSpaceOnUse" x1="204.5532" y1="487.166" x2="204.5632" y2="403.536" gradientTransform="matrix(1 0 0 1 213.0934 -290.749)">
					<stop  offset="0" style="stop-color:#FFFFFF"/>
					<stop  offset="1" style="stop-color:#000000"/>
				</linearGradient>
				<rect x="409.8" y="75.3" class="st11" width="15.8" height="66"/>
			</g>
		</mask>
		<rect x="409.8" y="75.3" class="st12" width="15.8" height="66"/>
		<defs>
			<filter id="Adobe_OpacityMaskFilter_3_" filterUnits="userSpaceOnUse" x="431.8" y="75.3" width="72" height="66">
				<feColorMatrix  type="matrix" values="1 0 0 0 0  0 1 0 0 0  0 0 1 0 0  0 0 0 1 0"/>
			</filter>
		</defs>
		<mask maskUnits="userSpaceOnUse" x="431.8" y="75.3" width="72" height="66" id="SVGID_9_">
			<g class="st13">
				
					<linearGradient id="SVGID_10_" gradientUnits="userSpaceOnUse" x1="232.6364" y1="487.172" x2="232.6465" y2="403.542" gradientTransform="matrix(1 0 0 1 235.1565 -290.749)">
					<stop  offset="0" style="stop-color:#FFFFFF"/>
					<stop  offset="1" style="stop-color:#000000"/>
				</linearGradient>
				<rect x="431.8" y="75.3" class="st14" width="72" height="66"/>
			</g>
		</mask>
		<polygon class="st15" points="488,75.3 467.8,106.2 447.6,75.3 431.8,75.3 431.8,141.3 447.6,141.3 447.6,103.2 464.9,130.5 
			470.7,130.5 488,103.2 488,141.3 503.8,141.3 503.8,75.3 		"/>
		<defs>
			<filter id="Adobe_OpacityMaskFilter_4_" filterUnits="userSpaceOnUse" x="507.8" y="74.3" width="67.9" height="67.9">
				<feColorMatrix  type="matrix" values="1 0 0 0 0  0 1 0 0 0  0 0 1 0 0  0 0 0 1 0"/>
			</filter>
		</defs>
		<mask maskUnits="userSpaceOnUse" x="507.8" y="74.3" width="67.9" height="67.9" id="SVGID_11_">
			<g class="st16">
				
					<linearGradient id="SVGID_12_" gradientUnits="userSpaceOnUse" x1="230.5909" y1="486.2508" x2="230.6009" y2="402.6208" gradientTransform="matrix(1 0 0 1 311.1497 -289.8193)">
					<stop  offset="0" style="stop-color:#FFFFFF"/>
					<stop  offset="1" style="stop-color:#000000"/>
				</linearGradient>
				<rect x="507.8" y="74.3" class="st17" width="67.9" height="67.9"/>
			</g>
		</mask>
		<path class="st18" d="M541.8,127.3c-10.9,0-18.1-8.6-18.1-19.1c0-10.4,7.3-19.1,18.1-19.1c10.9,0,18.1,8.6,18.1,19.1
			C559.9,118.7,552.6,127.3,541.8,127.3 M541.8,142.2c18.9,0,33.9-15.1,33.9-33.9s-15.1-33.9-33.9-33.9c-18.9,0-33.9,15.1-33.9,33.9
			S522.9,142.2,541.8,142.2z"/>
		<defs>
			<filter id="Adobe_OpacityMaskFilter_5_" filterUnits="userSpaceOnUse" x="579.3" y="75.3" width="60.2" height="66">
				<feColorMatrix  type="matrix" values="1 0 0 0 0  0 1 0 0 0  0 0 1 0 0  0 0 0 1 0"/>
			</filter>
		</defs>
		<mask maskUnits="userSpaceOnUse" x="579.3" y="75.3" width="60.2" height="66" id="SVGID_13_">
			<g class="st19">
				
					<linearGradient id="SVGID_14_" gradientUnits="userSpaceOnUse" x1="226.7421" y1="487.1768" x2="226.7421" y2="403.5468" gradientTransform="matrix(1 0 0 1 382.6171 -290.749)">
					<stop  offset="0" style="stop-color:#FFFFFF"/>
					<stop  offset="1" style="stop-color:#000000"/>
				</linearGradient>
				<rect x="579.3" y="75.3" class="st20" width="60.2" height="66"/>
			</g>
		</mask>
		<polygon class="st21" points="623.6,75.3 623.6,115 595.1,75.3 579.3,75.3 579.3,141.3 595.1,141.3 595.1,101.6 623.6,141.3 
			639.4,141.3 639.4,75.3 		"/>
		<defs>
			<filter id="Adobe_OpacityMaskFilter_6_" filterUnits="userSpaceOnUse" x="646" y="75.3" width="56.8" height="66">
				<feColorMatrix  type="matrix" values="1 0 0 0 0  0 1 0 0 0  0 0 1 0 0  0 0 0 1 0"/>
			</filter>
		</defs>
		<mask maskUnits="userSpaceOnUse" x="646" y="75.3" width="56.8" height="66" id="SVGID_15_">
			<g class="st22">
				
					<linearGradient id="SVGID_16_" gradientUnits="userSpaceOnUse" x1="225.0683" y1="487.1768" x2="225.0683" y2="403.5468" gradientTransform="matrix(1 0 0 1 449.297 -290.749)">
					<stop  offset="0" style="stop-color:#FFFFFF"/>
					<stop  offset="1" style="stop-color:#000000"/>
				</linearGradient>
				<rect x="646" y="75.3" class="st23" width="56.8" height="66"/>
			</g>
		</mask>
		<path class="st24" d="M670.4,126.4h-8.6V90.1h8.6c8.7,0,16.6,5.3,16.6,18.1C687,121.1,679.2,126.4,670.4,126.4 M670.4,75.3H646v66
			h24.5c18.8,0,32.4-14.5,32.4-33S689.2,75.3,670.4,75.3z"/>
		<path class="st3" d="M188.4,72.2l-28.5,40h10.7c3.9,0,7.1,3.2,7.1,7.1c0,1.7-0.6,3.2-1.5,4.4l-52.6,77l5.1,7.8L218.4,72
			l-28.8-30.7H67.9L39.1,72l58.4,88.7c4,5.5,1.2,10.6-3,11.7c-2.8,0.8-6.3-0.2-8.9-3.9l-61.2-93c-2.1-2.7-1.9-6.6,0.5-9.2l34.4-36.7
			c1.3-1.6,3.3-2.6,5.5-2.6h127.9v0c1.9,0,3.8,0.8,5.2,2.2l34.8,37c2.2,2.4,2.6,6,0.8,8.8l-98.6,150.2c-0.5,0.8-1.2,1.6-2.1,2.2
			c-3.3,2.2-7.7,1.2-9.9-2L109.4,205c-1.8-2.4-2-5.7-0.2-8.3l47.9-70.1h-11v0c-1.4,0-2.9-0.4-4.1-1.3c-3.2-2.3-4-6.7-1.7-9.9
			l38.1-53.5C182.2,64.9,185.5,68.4,188.4,72.2"/>
		<path class="st25" d="M36.8,150.3C18.5,98.7,45.5,41.9,97.2,23.6c1.4-0.5,2.8-1,4.2-1.4C56.9,40.4,34.1,90.5,50.3,136.3
			c16.7,47.1,68.5,71.8,115.6,55.1c45.8-16.2,70.3-65.6,56.4-111.6c0.6,1.4,1.1,2.7,1.6,4.1c18.3,51.7-8.7,108.4-60.3,126.7
			C111.9,229,55.2,202,36.8,150.3"/>
		<path class="st3" d="M138.1,179.6l-14.4,21.2l5.1,7.8l19-29h17l-30,45.7c-0.5,0.8-1.2,1.6-2.1,2.2c-3.3,2.2-7.7,1.2-9.9-2
			L109.4,205c-1.8-2.4-2-5.7-0.2-8.3l11.6-17H138.1z"/>
	</g>
</g>
<g id="Layer_2">
</g>
</svg>
