<?xml version="1.0" encoding="utf-8"?>
<!-- Generator: Adobe Illustrator 24.0.1, SVG Export Plug-In . SVG Version: 6.00 Build 0)  -->
<svg version="1.1" id="Camada_1" xmlns="http://www.w3.org/2000/svg" xmlns:xlink="http://www.w3.org/1999/xlink" x="0px" y="0px"
	 viewBox="0 0 259.6 287.9" style="enable-background:new 0 0 259.6 287.9;" xml:space="preserve">
<style type="text/css">
	.st0{fill:#00219B;stroke:#FFFFFF;stroke-miterlimit:10;}
	.st1{fill:#0058B7;stroke:#FFFFFF;stroke-miterlimit:10;}
	.st2{fill:#FFFFFF;}
</style>
<g id="BACKGROUND">
</g>
<g>
	<g>
		<g>
			<g>
				<g>
					<path class="st0" d="M198.3,197.7c-0.5,0-1.9,0.6-2.1-0.6c-0.2-1.1,0.8-1.4,1.1-1.8c0,0-2.1-0.4-2.9-0.4
						c-0.8,0-1.9,0.1-2.7,0.3c-0.8,0.2-2.5,1.6-3.3,2.3c-0.7,0.7-2.3,0.5-3.2,0.5c-0.8,0-1.1-0.3-1.7-0.7c-0.6-0.5-1.2-0.4-2-0.4
						c-0.8,0,0.3,1.5-0.1,1.9c-0.4,0.5,0.3,0.7,0,1.5c-0.3,0.7-1.5-0.6-1.5-0.6s-4.6-1.7-5.1-1.7c-0.6,0-1,0.4-1.4,0.5
						c-0.4,0.1-1.9,0.3-3-0.8c-1.1-1,0-1.3,0-1.9c0-0.6-1-1.6-1.6-1.8c-0.6-0.2-0.6,0.7-1.4,1.3c-0.8,0.6-0.6-0.2-1.6-1.3
						c-0.9-1.1-0.5,0.1-1.6,0.7c-1.1,0.6-0.9,2.1-1.1,3c-0.2,0.8-0.9,0.6-0.9,0.6l-2.2-1c0,0-1.7-1.8-2.4-2.5c-0.7-0.7-2.2,0-2.6,0
						c-0.4,0-1.3-0.3-2.4-0.9c-1.1-0.6-0.2-2.2,0-3.2c0.2-1,0.6-2.4,0.5-2.8c-0.1-0.4-0.9,1.1-1.6,2.2c-0.6,1.1-1.3,3.4-1.3,3.4
						l-1,2.4c0,0-0.7,2.2-0.7,2.8c0,0.6-0.2,1.1-0.9,2.3c-0.7,1.2-1.6,0.5-1.6,3.1c0,2.6,0.6,3,0,4.2c-0.6,1.2-1.8,1.6-2.1,3.5
						c-0.4,2,0,3.1-0.3,4.1c-0.3,1-3.9,1.7-4.9,3.2c-1,1.6-1.2,3.3-2.1,5.1c-0.9,1.9-1.5,3.1-2.6,3.5c-1.1,0.5-2.9,0.3-3.9,0.9
						c-1,0.7-1.1,1.9-2.6,2.6c-1.5,0.7-2.2,0.6-2.2,1.5c0,0.9,0.5,1,0.5,2c0,1,0.3,2.1-1.6,3.5c-0.1,0.1-0.2,0.2-0.3,0.3
						c0,0,0,0-0.1,0c-0.1,0.1-0.2,0.2-0.3,0.3c-0.1,0.1-0.3,0.3-0.4,0.4c-0.1,0.1-0.2,0.3-0.3,0.4c-0.1,0.1-0.1,0.1-0.2,0.2
						c-0.1,0.1-0.1,0.2-0.2,0.2c-0.1,0.2-0.2,0.3-0.3,0.5c-0.1,0.2-0.2,0.3-0.3,0.5c-0.1,0.2-0.2,0.3-0.3,0.5c0,0,0,0,0,0.1
						c-0.1,0.1-0.1,0.3-0.2,0.4c-0.1,0.3-0.2,0.5-0.3,0.8c0,0.1-0.1,0.1-0.1,0.2c-0.1,0.1-0.1,0.3-0.2,0.4c0,0.1-0.1,0.2-0.1,0.3
						c0,0.1,0,0.2-0.1,0.3c0,0.1,0,0.1,0,0.2c0,0,0,0.1,0,0.1c0,0.1,0,0.1,0,0.1c0,0,0,0.1,0,0.1c0,1.2,0,2.3,0.1,3.2
						c0.1,0.8,1,2,1,2.7c0,0.7,0.6,1.5-0.4,1.5c0,0-1,0.8,0,1.7c1,0.8,3.6,1,3.6,1s-0.5,1.9-0.8,2.1c-0.4,0.3-1.3,0.9-0.6,1.4
						c0.7,0.5,0.6,1.3,1.9,0.7c1.3-0.6-0.1-0.8,1.8-0.7c1.9,0.2,2.1-0.1,2.8,0.8c0.7,0.9,2.1,1.7,3.3,2.7c1.3,1,4.4,1.3,5,1.4
						c0.6,0.1,2.6,0.8,2.9,1.3c0.3,0.5,0.5,0.8,1.6,1.4c1.1,0.6,1.5,1.8,2.3,2.7c0.2-0.2,0.4-0.4,0.5-0.6c0.3-0.7,0.1-1.4,0.3-2.1
						c0.3-1,2-1.3,2.7-1.9c0.1-0.1,0.1-0.1,0.2-0.2c0,0,0.1-0.1,0.1-0.1c0-0.1,0.1-0.1,0.1-0.2c0-0.1,0.1-0.1,0.1-0.2
						c0.1-0.1,0.1-0.2,0.2-0.4c0-0.1,0-0.1,0.1-0.2c0.1-0.3,0.2-0.7,0.3-1c0.2-0.7,1-2.1,1.5-2.6c0.6-0.5,2.4-0.5,3.5-0.8
						c1.1-0.3,3.1-0.8,3.3-0.8c0.3,0,1.8-0.7,2.2-0.7c0.4,0,1.4,0.7,2.5,0.7s1.1-0.1,1.4-0.5c0.3-0.4,1.4-0.9,2-1.3
						c0.6-0.4,1-0.5,1.8-0.6c0.8-0.1,2.3-0.1,2.6,0c0.3,0.1,1.3,0.1,2-0.2c0.8-0.4,1.8,0,2.2,0.2c0.5,0.2,1.9,0.8,2.6,1.1
						c0.7,0.4,2.6-1,3.1-1.1c0.4-0.1,1.7-1.1,2.5-1.7c0.8-0.6,1.3-1,1.7-1.5c0.4-0.5-0.1-1.1-0.2-1.4c-0.1-0.4-0.5-1.4-0.5-2
						c0-0.5,0.5-1.1,0.7-1.3c0.1-0.3,0-1.3-0.4-1.5c-0.4-0.2-0.9-0.1-1.6-0.7c-0.6-0.6,0.2-1.3,0.5-2c0.3-0.7,1.5-1.6,1.9-2.1
						c0.4-0.5,1.2-0.8,1.7-1.1c0.5-0.3-0.1-1.4-0.6-2.2c-0.4-0.8-0.9-1.4-1.7-2.3c-0.8-0.9-0.6-1.2-0.8-1.9
						c-0.2-0.6,0.3-0.4,0.8-1.2c0.5-0.7,0-0.8,0-1.9c0-1,0.3-1.6,0.5-2c0.2-0.4,1.2-0.3,1.4-0.3c0.2,0,1.2-0.2,2.3-0.5
						c1.1-0.2,1.3-0.5,1.8-0.9c0.5-0.4,0.1-1,0-1.2c0-0.1-0.6-0.7-1-1.4c-0.3-0.7-0.7-1.2-0.8-1.5c-0.1-0.4,1-1.2,1.1-1.6
						c0.1-0.4-0.7-1.2-1.1-1.8c-0.3-0.6,0.7-1.4,1.1-1.5c0.5-0.1,0.7,0,1,0c0.2,0,1.1,0.3,1.7,0.5c0.6,0.1,0.7,0,1-0.2
						c0.3-0.2-0.1-0.7-0.4-1.2c-0.3-0.5-0.5-1-0.7-1.3c-0.2-0.3,0.8-1.8,0.8-1.8s1.4,1,1.6,1.3c0.2,0.2,0.7,0.8,1.5,1.5
						c0.7,0.7,0.9,0,1.5,0c0.6,0,1.8,0.2,1.8,0.2c0.1-0.4-0.6-0.8-0.6-1v-3.6c0-1,0.5-0.8,0.9-1c0.4-0.3,0.1-0.9-0.3-1.1
						c-0.3-0.2-1.4-1-2.4-1.7c-1-0.7-0.4-2.3-0.2-2.8c0.1-0.5,0.3-1.7,0.2-2.5c-0.1-0.7-0.4-0.9-0.4-1.9c0-1,0.3-0.7,0.9-1.5
						c0.7-0.7,2.1-1,2.6-1.7C200.8,197.6,198.8,197.7,198.3,197.7z M184.7,226.1c0,0.2-0.3,0.3-0.6,0.6c-0.3,0.3-0.3,1.4-0.3,1.7
						c0,0.3,0.6,0.8-0.1,1c-0.7,0.2-1.9,0.3-2.6,0.4c-0.7,0-1.9-0.1-3.7-0.3c-1.8-0.2-3.3-0.2-3.7-0.3c-0.4-0.1-0.9-1-0.4-1.6
						c0.5-0.6,0.8-0.8,1-1c0.2-0.2,0.8-0.5,0.8-0.6c0-0.1-0.3-1.1,0.1-1.7c0.4-0.6,1-1.4,1.6-1.4c0.6,0,2.8-0.1,3.1,0
						c0.3,0.1,1.3,0.4,1.6,0.4c0.2,0,1.9,0.1,1.9,0.1l1.2,1.3C184.7,224.6,184.7,225.9,184.7,226.1z"/>
				</g>
				<path class="st1" d="M245.2,81c-0.1,0.4-0.2,0.9-0.3,1.2c-0.3,1.2-1.6,2.2-2.3,2.8c-0.6,0.6-1.5,1.1-2.5,1.9
					c-1.1,0.8-3.1,1.1-3.1,1.1s-1.1,1-1.9,2.1c-0.9,1.1,0,1.4,0,2.1c0,0.7-0.7,1.7-1.3,2.6c-0.6,0.9-1.9,2.4-1.9,2.4s0.1,0.2,0.2,1
					c0.2,0.7,1.1,1.5,1,1.9c-0.1,0.5-0.2,0.7-0.8,1.5c-0.6,0.8-0.3,1.6-0.2,2.2c0.1,0.6,0.7,1.5,1.1,2.2c0.4,0.7,0.7,2.1,0.6,2.7
					c0,0.6-0.4,1-0.9,1.5c-0.5,0.5-1.5,0.9-2,1.7c-0.5,0.8-0.3,4.9-0.3,5.6c0,0.7,0.9,0.8,1.1,1c0.2,0.2,0.9,0.5,1.5,0.6
					c0.6,0.1,0.9,0.8,1.1,1.3c0.1,0.5-0.3,1.6-0.4,2.2c-0.2,0.6-0.8,1.4-1.4,2.1c-0.6,0.7-1.6,0.2-2.2,0.2c-0.7,0-1.4,0.8-2.6,1.2
					c-1.2,0.5-2.4-0.3-2.4-0.4c-0.1-0.1-0.6-0.7-0.7-1c-0.2-0.3-2-0.1-3.1,0.3c-1,0.3-0.9,0.8-1.4,1.5c-0.5,0.7-2,1.6-3,2.1
					c-1,0.6-2.6,2.5-4,3.3c-1.5,0.9-4.8,1.7-5,1.8c-0.1,0-0.3,0.2-0.6,0.4c-0.6,0.5-1.6,1.2-1.9,1.5c-0.6,0.6-1.2,1.5-1.2,2.2
					c0,0.8-0.2,1.5-0.5,2.8c-0.3,1.3-1.8,3.6-2,4.8c-0.3,1.2-1,1.5-1.6,2c-0.6,0.5-1,1.1-1,2c0,0.9,0.3,2.3,0.3,2.3s0.8,1.7,1.1,2.1
					c0.2,0.4,0.1,1.3,0.1,1.5c0,0.2,0.5,1.7,0.6,2.2c0.1,0.5-0.6,0.9-0.7,1.1c-0.1,0.2-0.3,2.9-0.4,3.7c-0.1,0.9-0.5,1.4-0.5,1.4
					s-3.2-0.3-3.4-0.3c-0.2,0-0.9-0.6-1.3-1.2c-0.4-0.6-0.4-1.5-0.6-2.2c-0.2-0.7-0.6-0.8-0.8-0.9c-0.1-0.1-1.2-0.8-1.2-1.3
					c0-0.5,1.2-1.3,1.3-1.5c0.1-0.2-0.1-0.5-0.5-1.6c-0.3-1.1-0.8-0.5-1.1-0.7s-1.5-0.4-2-0.9c-0.4-0.4-0.2-1.1-0.5-1.9
					c-0.3-0.8-0.6-0.4-1-0.7c-0.4-0.3-0.4-1.1-0.4-1.1c0.6-0.8,0.9-1.7,1.5-2.7c0.6-1,0.4-1.6,0.7-2.6c0.4-1,0.7-0.5,1.4-0.8
					c0.7-0.4,1.3,0,1.6,0c0.3,0,0.8-1.6,0.7-2.7c-0.1-1.1-0.5-2.6-0.8-3.3c-0.4-0.6-1.7-0.5-2.9-0.2c-1.2,0.3-2.3,1.5-2.6,1.8
					c-0.3,0.3-1.8-2.3-2-2.9c-0.3-0.6-1.8-1.9-2.2-2.8c-0.5-0.9-0.5-1.5-0.5-2.4c0-0.9-0.2-0.2-0.9,0c-0.7,0.2-1.4-0.3-1.9-0.7
					c-0.6-0.5,1.6-1.3,2.4-2c0.8-0.6,1.4-5.5,1.4-5.5s0.1-2.2,0-3.2c-0.1-0.9,0.1-4.3,0-5.5c-0.1-1.2-1.1-3-1.6-3.7
					c-0.5-0.7-2.2-2-3.2-2.9c-0.9-0.9-1.3,0.1-2,0c-0.7-0.1-2.3,0-2.3,0l-0.9-2c0.3-0.3,0.5-0.6,0.7-0.9c1-1.6,1.6-1.4,2.2-2.1
					c0.7-0.6,2.4-1.2,4-2.1c0.9-0.5,1.5-1.3,2.1-2.1c0.5-0.7,0.9-1.4,1.4-2c1-1.3,1.2-1.9,2-3.2c0.8-1.3,0.5-1.7,0.7-2.5
					c0.3-0.8,1.6-1.9,2.5-3.2c0.9-1.3,1.3-2.1,1.7-3.2c0.4-1,0.4-2.7,0.7-4.1c0.4-1.4,1.9-3.3,2.7-4.9c0.8-1.6,2.2-6.7,2.5-9.3
					c0.2-1.5,0.1-4.1,0.1-6.2c0.2,0.1,0.4,0.1,0.6,0.2c0.1,0,0.2,0.1,0.3,0.1c0.3,0.1,0.6,0.2,0.9,0.3c0.1,0,0.3,0.1,0.4,0.1
					c0.1,0,0.3,0.1,0.4,0.1c1,0.3,1.7,0.6,2.1,0.6c0,0,0.1,0,0.1,0c0,0,0,0,0.1,0c0.4,0.1,2.8,1.6,3.1,1.7c0.2,0.1,1.3,2.1,1.6,2.4
					c0.3,0.3,0.9-0.2,1.2-0.6c0.3-0.5,1.6-1.1,2.2-1.1c0.6,0,3,3.4,3.8,4.6c0.8,1.2,3.1,5.8,3,6.1c-0.1,0.3-0.1,1.3-0.1,1.7
					c-0.1,0.3,0.9,0.9,0.9,0.9l0.4-0.1c0,0,1.7-0.7,1.9-0.6c0.2,0,0.6,0.9,0.6,0.9s1.8-0.8,2.5-1.6c0.7-0.7,1-0.7,2.2-1.1
					c1.2-0.4,2.2,0.5,3.2,0.9c1,0.4,4.9,2.5,4.9,2.5s2.2,0.8,2.4,0.8c0,0,0,0,0.1,0c0,0,0,0,0.1,0c0.1,0,0.1,0,0.2,0c0,0,0,0,0,0
					c0,0,0.1,0,0.1,0c0.1,0,0.2,0,0.3,0c0.2,0,0.4,0.1,0.6,0.1c0.1,0,0.1,0,0.2,0c0.4,0,0.8,0.1,1.2,0.2c0.1,0,0.3,0,0.4,0.1
					c0.1,0,0.1,0,0.2,0c0,0,0,0,0,0c0.1,0,0.3,0,0.4,0c0.1,0,0.1,0,0.2,0c0.2,0,0.3,0,0.5,0.1c0.1,0,0.2,0,0.2,0c0,0,0,0,0,0
					c0.2,0,0.3,0,0.4,0c0.8,0.1,3.1,1.1,3.3,1.3C244.8,80.9,245,80.9,245.2,81z"/>
			</g>
			<g>
				<path class="st0" d="M197.4,66c-0.3,2.6-1.7,7.7-2.5,9.3c-0.8,1.6-2.3,3.5-2.7,4.9c-0.4,1.4-0.4,3.1-0.7,4.1
					c-0.4,1-0.7,1.9-1.7,3.2c-0.9,1.3-2.2,2.3-2.5,3.2c-0.3,0.8,0.1,1.2-0.7,2.5c-0.8,1.3-1,1.9-2,3.2c-0.5,0.6-0.9,1.3-1.4,2
					c-0.6,0.8-1.3,1.6-2.1,2.1c-1.6,0.9-3.3,1.5-4,2.1c-0.6,0.7-1.2,0.5-2.2,2.1c-0.2,0.3-0.5,0.7-0.7,0.9c-0.9,1-1.8,1.6-2.3,2
					c-0.6,0.6-2.9,1.5-2.2,1.7c0.7,0.2,2.9,0.4,3.3,0.5c0.4,0.1,1.8,1.6,2,1.8c0.3,0.2,1.2,1.7,1,2.2c-0.2,0.6-1,1.4-1.4,1.8
					c-0.4,0.4-0.4,1-0.4,1.7c0,0.6,0.2,1.1-0.8,2.4c-1,1.3-3.2,4.1-3.8,4.6c-0.6,0.5-2.2,0.3-2.9,0.9c-0.6,0.6-1.8,1.1-2.1,2
					c-0.4,0.9-0.8,0-1,1.9c-0.2,1.9-1.3,3.3-1.4,3.7c-0.1,0.5,0.3,1.6,0.6,2.2c0.3,0.7,2,2,2.2,3c0.2,1-0.5,5.1-1.5,6.4
					c-1,1.3-2.1,2-2.7,2.9c-0.6,0.9-0.7,1.9-1.6,2.3c-0.8,0.5-1.9,0.2-2.6,2c-0.7,1.9-2,4.2-2.2,4.6c-0.1,0.4-1.2,2.7-1.5,3.6
					c0.1-0.2,0.1-0.3,0.1-0.4c0,0,0,0,0,0l-14.8-1.1l-52.1-3.8h-3.6l-2.6-1.2c0,0-0.9-1.9-1.2-2.5c-0.3-0.6-2.2-0.2-2.6-0.7
					c-0.4-0.6-0.9-1.7-1.3-2.3c-0.4-0.6-1.3-0.5-1.5-0.9c-0.2-0.5-1-3.2-1-3.6c0-0.5-0.1-2.4-0.8-3.3c-0.7-0.9-0.8-1.4-1.3-3.1
					c-0.5-1.7,0-3.5,0-3.5s-1.5-1.6-3-2.1c0,0-2-4.7-2.5-4.9c-0.5-0.2-1.1-1.5-1.1-2.2c0-0.7,3.1-3.6,4.2-6.2
					c1.1-2.6,7.7-15.9,8.9-19.2c1.2-3.3,6.8-13.9,7.9-15.9c1.1-2,0.5-3.2,0.6-5.2c0.1-2,0.7-1.6,1.7-2.5c1-0.9,2.6-1.9,2.6-1.9
					L88.4,72c0,0-2.1,1.4-4.1,1.7c-2,0.4-2.7-0.9-3.1-1c-0.4-0.1-0.9-0.7-1.7-2.7c-0.9-2-2.2-1-2.8-1.4c-0.6-0.4-2.5-0.7-4.7-1.9
					c-2.2-1.1-2.3-1.2-2.8-2.2c-0.5-1,0-2.1,0-2.1h-3.5c0,0-0.6-0.5-1.6-1.4c-1-0.9-0.7-0.5-1.9-2c-1.1-1.5-1.1-3.3-1.5-4.5
					c-0.4-1.1-1.6-1.4-2.2-2.7c-0.6-1.4,0-5.3,0-5.3l0.7-11.5c0.5,0.1,0.8,0.2,0.9,0.2c0.2,0,3.2-0.7,3.4-1.2
					c0.3-0.5,1.1-2.1,1.6-2.3c0.5-0.2,1.9,1.1,3,1c1.1-0.1,0.5-1.6,1.4-2.1c0.9-0.5,2.9,0.2,3.4,0c0.5-0.1,1.6-1.9,2.8-2.7
					c1.1-0.8,1.6-0.4,1.7-0.4c0.1,0,1.9,0.8,3,0.9c1.1,0.1,1.9-0.3,2.4-0.6c0.5-0.3,3.1,0.1,4.1,0.4c1,0.3,2.7,1.3,3.8,0.8
					c1.1-0.4,0.7-2.8,0.7-2.8c0-0.4-1-1.7-1.6-2.1c-0.6-0.4,1.2-2.7,1.2-2.7s3.3,1.4,3.8,1.5c0.5,0.1,1.4,0,2.5-1.1
					c1.1-1.1,3.7-0.7,4.1-0.7c0.2,0,1,0.8,1.8,1.5c0,0.2,0.6,2.2,0,3.2c-0.6,1-0.5,3.6,0.3,3.7c0.7,0.1,3.1-1.3,4.1-0.8
					c0.9,0.5,3,3,3.6,3.4c0.7,0.4,3.1,1,3.1,1s2.2,0.6,2.6,1.1c0.4,0.5,2,3.4,2,3.8c0,0.4,1.3,1.6,1.9,2.2c0.6,0.6,1.4,1.3,1.4,2.2
					c0,0.9,0.3,3.5,0,4c-0.3,0.5,0.1,1.1,0.6,2.2c0.6,1.1,4.5,3.7,4.5,4.6s0.5,2.5,0.7,2.8c0.3,0.3,0.9,0.7,1,1.2
					c0.1,0.5,0.2,2.8,0.9,3.2c0.7,0.4,4.3,1.2,4.3,1.2s2.1,1.7,3.1-1.2c0.9-2.9,1.6-4.4,2.1-4.9c0.6-0.6,2.3-1.9,2.3-1.9
					s0.8-2.8,1.2-3.5s1.3-1.5,2.1-1.9c0.8-0.5,1.8-0.6,2.4-1c0.6-0.5,1.5-1.5,1.8-2c0.3-0.6,1.3-2.4,2.1-2.7
					c0.9-0.3,1.7-0.7,2.6-0.9c0.4-0.1,0.7-0.2,1.1-0.3c0,0.1,0,0.3,0.1,0.4c0.2,0.6,0.4,0.9,0.4,1.6c0,0.5-0.2,1.3,0.2,1.8
					c0.1,0.1,2,0.2,2,0.2s1.4,0,1.6,0c0.2,0,2.3,1.2,2.5,1.5c0.2,0.3,1.9,2.4,2.3,3.3c0.5,1,2,1.3,2,1.3s1.7,0,2.5-0.2
					c0.7-0.2,2.3,0,2.8,0c0.5,0,1.4,1.5,1.4,1.5s-0.6,0.8-1,1.3c-0.4,0.5,1.5,1.1,1.7,1.2c0.2,0,2.6,0.4,3,0.1
					c0.4-0.3,3.9,0.3,7.1,0.8c0.2,0,0.4,0.1,0.6,0.1c0.1,0,0.2,0,0.3,0.1c0.3,0.1,0.7,0.2,1.1,0.3c0.2,0,0.4,0.1,0.6,0.1
					c0.1,0,0.3,0.1,0.4,0.1c0.3,0.1,0.6,0.2,0.9,0.2c0.5,0.1,1,0.3,1.6,0.4c0.3,0.1,0.7,0.2,1,0.3c0.3,0.1,0.5,0.2,0.8,0.2
					c0.6,0.2,1.1,0.3,1.7,0.5c0.2,0.1,0.4,0.1,0.6,0.2c1.3,0.4,2.5,0.8,3.7,1.1c0.2,0.1,0.5,0.1,0.7,0.2c0,0,0,0,0.1,0
					C197.5,61.9,197.6,64.6,197.4,66z"/>
			</g>
			<g>
				<path class="st1" d="M184.7,224.6c0,0,0,1.3,0,1.5c0,0.2-0.3,0.3-0.6,0.6c-0.3,0.3-0.3,1.4-0.3,1.7c0,0.3,0.6,0.8-0.1,1
					c-0.7,0.2-1.9,0.3-2.6,0.4c-0.7,0-1.9-0.1-3.7-0.3c-1.8-0.2-3.3-0.2-3.7-0.3c-0.4-0.1-0.9-1-0.4-1.6c0.5-0.6,0.8-0.8,1-1
					c0.2-0.2,0.8-0.5,0.8-0.6c0-0.1-0.3-1.1,0.1-1.7c0.4-0.6,1-1.4,1.6-1.4c0.6,0,2.8-0.1,3.1,0c0.3,0.1,1.3,0.4,1.6,0.4
					c0.2,0,1.9,0.1,1.9,0.1L184.7,224.6z"/>
				<g>
					<path class="st1" d="M201.9,165c-0.5,0.6-1.7,1.7-2.7,2.7c-0.9,1-3.3,3-3.9,3.8c-0.6,0.8-3.1,4.2-2.8,4.8
						c0.3,0.6,1.7,1.4,2.2,1.7c0.5,0.3,2.4,0.3,2.6,0.7c0.2,0.4,1.3,1.5,0.6,1.7c-0.7,0.2-2.5,0.2-2.7,0.4c-0.2,0.2-0.1,1.2-0.1,1.2
						s2.9,0.6,2.4,1.6c0,0.1-0.1,0.1-0.1,0.2c-0.1,0.2-0.3,0.3-0.4,0.4c-0.1,0.1-0.2,0.1-0.4,0.2c-0.1,0-0.1,0-0.2,0.1
						c-0.2,0.1-0.4,0.1-0.6,0.1c0,0,0,0,0,0c0,0-0.1,0-0.1,0c-0.1,0-0.2,0-0.2,0c-0.2,0-0.3,0.1-0.3,0.2c-0.1,0.4,0.9,3.7,1.2,3.8
						s1,0.3,1.1,0.6c0.2,0.3,0.6,0.6,0,1.2c-0.6,0.6-0.8,1.5-0.8,2c0,0.5,0.5,0.9,0.8,1c0.3,0.1,0.7,0.9,0.4,1.2
						c-0.2,0.2-0.3,0.4-0.6,0.7c0,0-2.1-0.4-2.9-0.4c-0.8,0-1.9,0.1-2.7,0.3c-0.8,0.2-2.5,1.6-3.3,2.3c-0.7,0.7-2.3,0.5-3.2,0.5
						c-0.8,0-1.1-0.3-1.7-0.7c-0.6-0.5-1.2-0.4-2-0.4s0.3,1.5-0.1,1.9c-0.4,0.5,0.3,0.7,0,1.5c-0.3,0.7-1.5-0.6-1.5-0.6
						s-4.6-1.7-5.1-1.7c-0.6,0-1,0.4-1.4,0.5c-0.4,0.1-1.9,0.3-3-0.8c-1.1-1,0-1.3,0-1.9c0-0.6-1-1.6-1.6-1.8
						c-0.6-0.2-0.6,0.7-1.4,1.3c-0.8,0.6-0.6-0.2-1.6-1.3c-0.9-1.1-0.5,0.1-1.6,0.7c-1.1,0.6-0.9,2.1-1.1,3
						c-0.2,0.8-0.9,0.6-0.9,0.6l-2.2-1c0,0-1.7-1.8-2.4-2.5c-0.7-0.7-2.2,0-2.6,0c-0.4,0-1.3-0.3-2.4-0.9c-1.1-0.6-0.2-2.2,0-3.2
						c0.2-1,0.6-2.4,0.5-2.8c-0.1-0.4-0.9,1.1-1.6,2.2c-0.6,1.1-1.3,3.4-1.3,3.4s-0.9-0.5-1.5-0.6c-0.6-0.1-0.3-2.3-0.3-2.3
						s-0.1-3-0.2-5.7c-0.1-1.7-0.1-3.2-0.1-3.7c0-1.2-1-2.6-1-3.1c0-0.5,1-1.9,1.4-3.4c0.4-1.5,0.1-3.3,0.8-6
						c0.6-2.2,2.4-6.9,3.1-8.7c0,0,0-0.1,0-0.1c0,0,0-0.1,0.1-0.1c0,0,0-0.1,0-0.1c0.4-0.9,1.4-3.2,1.5-3.6c0.2-0.5,1.5-2.8,2.2-4.6
						c0.7-1.9,1.8-1.6,2.6-2c0.8-0.5,1-1.4,1.6-2.3c0.6-0.9,1.7-1.6,2.7-2.9c1-1.3,1.7-5.4,1.5-6.4c-0.2-1-2-2.3-2.2-3
						c-0.3-0.6-0.6-1.8-0.6-2.2c0.1-0.5,1.2-1.9,1.4-3.7c0.2-1.9,0.6-0.9,1-1.9c0.4-0.9,1.5-1.4,2.1-2c0.7-0.7,2.2-0.5,2.9-0.9
						c0.6-0.5,2.8-3.2,3.8-4.6c1-1.3,0.8-1.8,0.8-2.4c0-0.6,0-1.3,0.4-1.7c0.4-0.4,1.2-1.2,1.4-1.8c0.2-0.6-0.7-2-1-2.2
						c-0.3-0.2-1.7-1.7-2-1.8c-0.4-0.1-2.6-0.3-3.3-0.5c-0.6-0.2,1.7-1.1,2.2-1.7c0.4-0.4,1.4-1,2.3-2l0.9,2c0,0,1.6-0.1,2.3,0
						c0.7,0.1,1.1-0.9,2,0c0.9,0.9,2.7,2.1,3.2,2.9c0.5,0.7,1.5,2.5,1.6,3.7c0.1,1.2-0.1,4.6,0,5.5c0.1,0.9,0,3.2,0,3.2
						s-0.6,4.8-1.4,5.5c-0.8,0.6-3,1.5-2.4,2c0.6,0.5,1.2,0.9,1.9,0.7c0.7-0.2,0.9-0.8,0.9,0c0,0.9,0,1.4,0.5,2.4
						c0.5,0.9,1.9,2.2,2.2,2.8c0.3,0.6,1.8,3.2,2,2.9c0.3-0.3,1.4-1.5,2.6-1.8c1.2-0.3,2.5-0.5,2.9,0.2c0.4,0.7,0.7,2.1,0.8,3.3
						c0.1,1.1-0.5,2.7-0.7,2.7c-0.3,0-0.9-0.4-1.6,0c-0.6,0.4-1-0.2-1.4,0.8c-0.4,1-0.2,1.6-0.7,2.6c-0.6,1-0.9,1.9-1.5,2.7
						c0,0,0.1,0.8,0.4,1.1c0.4,0.3,0.7-0.1,1,0.7c0.2,0.8,0.1,1.5,0.5,1.9c0.4,0.4,1.6,0.6,2,0.9s0.8-0.5,1.1,0.7
						c0.3,1.1,0.5,1.5,0.5,1.6c-0.1,0.2-1.3,1-1.3,1.5c0,0.5,1.1,1.2,1.2,1.3c0.2,0.1,0.6,0.2,0.8,0.9c0.2,0.6,0.2,1.6,0.6,2.2
						c0.4,0.6,1.1,1.2,1.3,1.2c0.2,0,3.4,0.3,3.4,0.3s1.7,0,1.9,0c0,0,0.1-0.1,0.2-0.2l0.1,0.2C201.9,164,202.4,164.4,201.9,165z"/>
				</g>
			</g>
		</g>
	</g>
</g>
<g>
	<path class="st2" d="M121.5,107c-0.6,0.8-1.6,1.3-2.7,1.3h-2.7v3.4h-1.9v-9.9h4.5c0.3,0,0.7,0.1,1,0.2c0.7,0.2,1.3,0.6,1.7,1.2
		c0.4,0.6,0.6,1.3,0.7,1.9C122.2,105.8,121.9,106.5,121.5,107z M120.3,105.1c0-0.4-0.1-0.7-0.4-1c-0.3-0.3-0.7-0.5-1.1-0.5h-2.6v3
		h2.6c0.4,0,0.8-0.2,1.1-0.6C120.2,105.7,120.3,105.4,120.3,105.1z"/>
	<path class="st2" d="M128.3,110.2h-4.1l-0.5,1.5h-1.9l3-9.9h2.8l3,9.9h-1.9L128.3,110.2z M127.8,108.4l-1.5-4.9l-1.5,4.9H127.8z"/>
</g>
<g>
	<path class="st2" d="M173.5,159.1h-3.1v8.1h-1.9v-8.1h-3.1v-1.9h8.1V159.1z"/>
	<path class="st2" d="M175.4,165.8c-0.8-1-1.2-2.2-1.2-3.5s0.4-2.6,1.2-3.6c0.9-1.1,2.2-1.6,3.7-1.6s2.8,0.5,3.7,1.6
		c0.8,1,1.1,2.2,1.2,3.6c0,1.4-0.3,2.6-1.2,3.5c-0.9,1.1-2.3,1.6-3.7,1.6C177.6,167.4,176.2,166.8,175.4,165.8z M181.2,164.6
		c0.5-0.7,0.7-1.5,0.7-2.4s-0.2-1.8-0.7-2.4c-0.5-0.7-1.3-1-2.2-1c-0.9,0-1.7,0.3-2.2,1c-0.5,0.6-0.7,1.5-0.7,2.4
		c0,0.9,0.2,1.8,0.7,2.4c0.5,0.7,1.3,1,2.2,1C179.9,165.6,180.7,165.3,181.2,164.6z"/>
</g>
<g>
	<path class="st2" d="M160.3,232.5v0.3c0,1.3-0.4,2.6-1.2,3.5c-0.9,1.1-2.2,1.6-3.7,1.6s-2.8-0.5-3.7-1.6c-0.8-1-1.1-2.2-1.2-3.5
		c0-1.4,0.4-2.6,1.2-3.5c0.9-1.1,2.2-1.6,3.7-1.6c1.5,0,2.8,0.6,3.7,1.6c0.2,0.2,0.3,0.4,0.4,0.7l-1.7,0.8c-0.1-0.1-0.1-0.2-0.2-0.3
		c-0.5-0.7-1.3-1-2.2-1c-0.9,0-1.7,0.3-2.2,1s-0.6,1.5-0.7,2.4c0,0.9,0.2,1.8,0.7,2.4s1.3,1,2.2,1c0.8,0,1.7-0.3,2.2-1
		c0.3-0.4,0.4-0.8,0.6-1.3h-2.3v-1.5H160.3z"/>
	<path class="st2" d="M162.6,236.4c-0.8-1-1.2-2.2-1.2-3.5s0.4-2.6,1.2-3.6c0.9-1.1,2.2-1.6,3.7-1.6s2.8,0.5,3.7,1.6
		c0.8,1,1.1,2.2,1.2,3.6c0,1.4-0.3,2.6-1.2,3.5c-0.9,1.1-2.3,1.6-3.7,1.6C164.8,238,163.4,237.5,162.6,236.4z M168.4,235.3
		c0.5-0.7,0.7-1.5,0.7-2.4s-0.2-1.8-0.7-2.4c-0.5-0.7-1.3-1-2.2-1c-0.9,0-1.7,0.3-2.2,1c-0.5,0.6-0.7,1.5-0.7,2.4
		c0,0.9,0.2,1.8,0.7,2.4c0.5,0.7,1.3,1,2.2,1C167.1,236.3,167.9,235.9,168.4,235.3z"/>
</g>
<g>
	<path class="st2" d="M208.8,109.8h-1.9v-5.9l-2.9,5.9h-0.7l-2.9-5.9v5.9h-1.9v-9.9h1.9l3.2,6.6l3.2-6.6h1.9V109.8z"/>
	<path class="st2" d="M216.5,108.2h-4.1l-0.5,1.5H210l3-9.9h2.8l3,9.9h-1.9L216.5,108.2z M215.9,106.5l-1.5-4.9l-1.5,4.9H215.9z"/>
</g>
<g>
	<path class="st2" d="M16.5,178.3v1.7h2.9v1.4h-2.9v1.7h3.4v1.4h-4.9v-7.4h4.9v1.4h-3.4V178.3z"/>
	<path class="st2" d="M25.5,179.2c-0.2-0.3-0.3-0.7-0.7-0.9c-0.2-0.1-0.6-0.2-0.9-0.2c-0.3,0-0.7,0.1-0.9,0.2
		c-0.2,0.1-0.3,0.4-0.3,0.7c0,0.1,0,0.2,0.1,0.3c0.1,0.1,0.4,0.3,0.9,0.4l1.3,0.3c0.7,0.2,1,0.4,1.3,0.7c0.4,0.4,0.7,1,0.7,1.5
		c0,0.7-0.3,1.3-1,1.8c-0.6,0.3-1.2,0.4-2,0.4c-1,0-1.9-0.2-2.4-1c-0.3-0.4-0.6-1-0.7-1.4l1.4-0.3c0.1,0.3,0.2,0.7,0.3,0.9
		c0.3,0.4,0.9,0.6,1.3,0.6s0.9-0.1,1.1-0.3c0.2-0.2,0.3-0.4,0.3-0.7c0-0.2-0.1-0.3-0.2-0.6c-0.2-0.1-0.3-0.2-0.7-0.3l-1.4-0.4
		c-0.6-0.1-1.1-0.3-1.4-0.7c-0.4-0.3-0.7-0.9-0.7-1.4c0-0.8,0.6-1.5,1.2-1.9c0.6-0.2,1.1-0.3,1.5-0.3c0.6,0,1.1,0.1,1.5,0.3
		c0.7,0.3,1.1,0.9,1.4,1.7L25.5,179.2z"/>
	<path class="st2" d="M33.5,178.3h-2.3v6.1h-1.4v-6.1h-2.3v-1.4h6.1V178.3z"/>
	<path class="st2" d="M38.3,183.3h-3.1l-0.3,1.1h-1.4l2.3-7.4h2l2.3,7.4h-1.4L38.3,183.3z M37.9,181.9l-1.1-3.6l-1.1,3.6H37.9z"/>
	<path class="st2" d="M47.1,180.6c0,0.7-0.1,1.2-0.4,1.8c-0.7,1.1-1.9,1.9-3.1,1.9H41v-7.4h2.5c1.2,0,2.5,0.8,3.1,1.9
		C47,179.4,47.1,180.1,47.1,180.6z M45.6,180.6c0-0.4-0.1-0.9-0.2-1.2c-0.3-0.8-1.1-1.2-2-1.2h-1.1v4.9h1.1c0.8,0,1.5-0.4,2-1.2
		C45.6,181.5,45.7,181.1,45.6,180.6z"/>
	<path class="st2" d="M48.8,183.4c-0.6-0.8-0.9-1.7-0.9-2.6c0-1,0.2-2,0.9-2.6c0.7-0.8,1.7-1.2,2.8-1.2s2.1,0.4,2.8,1.2
		c0.7,0.8,0.9,1.7,0.9,2.6c0,1-0.2,1.9-0.9,2.6c-0.7,0.8-1.7,1.2-2.8,1.2C50.5,184.6,49.5,184.2,48.8,183.4z M53.1,182.5
		c0.3-0.6,0.4-1.1,0.4-1.8s-0.1-1.3-0.4-1.8c-0.3-0.4-1-0.8-1.7-0.8s-1.2,0.2-1.7,0.8c-0.3,0.4-0.6,1.1-0.6,1.8s0.1,1.3,0.6,1.8
		c0.3,0.4,1,0.8,1.7,0.8S52.8,182.9,53.1,182.5z"/>
	<path class="st2" d="M60.5,179.2c-0.2-0.3-0.3-0.7-0.7-0.9c-0.2-0.1-0.6-0.2-0.9-0.2s-0.7,0.1-0.9,0.2c-0.2,0.1-0.3,0.4-0.3,0.7
		c0,0.1,0,0.2,0.1,0.3c0.1,0.1,0.4,0.3,0.9,0.4l1.3,0.3c0.7,0.2,1,0.4,1.3,0.7c0.4,0.4,0.7,1,0.7,1.5c0,0.7-0.3,1.3-1,1.8
		c-0.6,0.3-1.2,0.4-2,0.4c-1,0-1.9-0.2-2.4-1c-0.3-0.4-0.6-1-0.7-1.4l1.4-0.3c0.1,0.3,0.2,0.7,0.3,0.9c0.3,0.4,0.9,0.6,1.3,0.6
		s0.9-0.1,1.1-0.3c0.2-0.2,0.3-0.4,0.3-0.7c0-0.2-0.1-0.3-0.2-0.6c-0.1-0.1-0.3-0.2-0.7-0.3l-1.4-0.4c-0.6-0.1-1.1-0.3-1.4-0.7
		c-0.4-0.3-0.7-0.9-0.7-1.4c0-0.8,0.6-1.5,1.2-1.9c0.6-0.2,1.1-0.3,1.5-0.3c0.6,0,1.1,0.1,1.5,0.3c0.7,0.3,1.1,0.9,1.4,1.7
		L60.5,179.2z"/>
	<path class="st2" d="M66.6,178.3v1.7h2.9v1.4h-2.9v1.7H70v1.4h-4.9v-7.4H70v1.4h-3.4V178.3z"/>
	<path class="st2" d="M79.2,184.4h-1.4V180l-2.2,4.4h-0.4l-2.2-4.4v4.4h-1.4V177h1.4l2.4,5l2.4-5h1.4
		C79.2,177,79.2,184.4,79.2,184.4z"/>
	<path class="st2" d="M89,183.2l0.6,0.6l-0.9,0.9l-0.6-0.6c-0.6,0.3-1.3,0.6-2,0.6c-1.1,0-2.1-0.4-2.8-1.2c-0.6-0.8-0.9-1.7-0.9-2.6
		c0-1,0.2-2,0.9-2.6c0.7-0.8,1.7-1.2,2.8-1.2c1.1,0,2.1,0.4,2.8,1.2c0.7,0.8,0.9,1.7,0.9,2.6C89.7,181.6,89.6,182.5,89,183.2z
		 M87.1,183l-0.7-0.7l0.9-0.9l0.7,0.7c0.2-0.4,0.3-1,0.3-1.4c0-0.7-0.1-1.3-0.4-1.8c-0.3-0.4-1-0.8-1.7-0.8s-1.2,0.2-1.7,0.8
		c-0.3,0.4-0.4,1.1-0.6,1.8c0,0.7,0.1,1.3,0.6,1.8c0.3,0.4,1,0.8,1.7,0.8C86.5,183.3,86.8,183.2,87.1,183z"/>
	<path class="st2" d="M97.1,181.6c0,0.7-0.2,1.3-0.7,1.9c-0.6,0.7-1.4,1.1-2.3,1.1s-1.8-0.3-2.4-1.1c-0.4-0.6-0.7-1.2-0.7-1.9V177
		h1.4v4.6c0,0.3,0.1,0.8,0.3,1c0.3,0.4,0.8,0.7,1.3,0.7c0.4,0,1-0.2,1.3-0.7c0.2-0.3,0.3-0.7,0.3-1V177h1.4v4.6H97.1z"/>
	<path class="st2" d="M100.1,178.3v1.7h2.8v1.4H100v1.7h3.4v1.4h-4.9v-7.4h4.9v1.4h-3.3V178.3z"/>
	<path class="st2" d="M20.5,190.2h-2.3v6.1h-1.4v-6.1h-2.3v-1.4h6.1V190.2z"/>
	<path class="st2" d="M22.8,190.2v1.7h2.9v1.4h-2.9v1.7h3.4v1.4h-4.9V189h4.9v1.4h-3.4V190.2z"/>
	<path class="st2" d="M35.4,196.3h-1.4v-4.4l-2.2,4.4h-0.4l-2.2-4.4v4.4h-1.4v-7.4h1.4l2.4,5l2.4-5h1.4
		C35.4,188.9,35.4,196.3,35.4,196.3z"/>
	<path class="st2" d="M37.5,195.3c-0.6-0.8-0.9-1.7-0.9-2.6c0-1,0.2-2,0.9-2.6c0.7-0.8,1.7-1.2,2.8-1.2c1.1,0,2.1,0.4,2.8,1.2
		c0.7,0.8,0.9,1.7,0.9,2.6c0,1-0.2,1.9-0.9,2.6c-0.7,0.8-1.7,1.2-2.8,1.2C39.1,196.5,38.1,196.1,37.5,195.3z M41.9,194.4
		c0.3-0.6,0.4-1.1,0.4-1.8s-0.1-1.3-0.4-1.8c-0.3-0.4-1-0.8-1.7-0.8c-0.7,0-1.2,0.2-1.7,0.8c-0.3,0.4-0.6,1.1-0.6,1.8
		s0.1,1.3,0.6,1.8c0.3,0.4,1,0.8,1.7,0.8C40.9,195.2,41.4,194.9,41.9,194.4z"/>
	<path class="st2" d="M49.2,191.1c-0.2-0.3-0.3-0.7-0.7-0.9c-0.2-0.1-0.6-0.2-0.9-0.2s-0.7,0.1-0.9,0.2c-0.2,0.1-0.3,0.4-0.3,0.7
		c0,0.1,0,0.2,0.1,0.3s0.4,0.3,0.9,0.4l1.3,0.3c0.7,0.2,1,0.4,1.3,0.7c0.4,0.4,0.7,1,0.7,1.5c0,0.7-0.3,1.3-1,1.8
		c-0.6,0.3-1.2,0.4-2,0.4c-1,0-1.9-0.2-2.4-1c-0.3-0.4-0.6-1-0.7-1.4l1.4-0.3c0.1,0.3,0.2,0.7,0.3,0.9c0.3,0.4,0.9,0.6,1.3,0.6
		c0.4,0,0.9-0.1,1.1-0.3c0.2-0.2,0.3-0.4,0.3-0.7c0-0.2-0.1-0.3-0.2-0.6c-0.1-0.1-0.3-0.2-0.7-0.3l-1.4-0.4
		c-0.6-0.1-1.1-0.3-1.4-0.7c-0.4-0.3-0.7-0.9-0.7-1.4c0-0.8,0.6-1.5,1.2-1.9c0.6-0.2,1.1-0.3,1.5-0.3c0.6,0,1.1,0.1,1.5,0.3
		c0.7,0.3,1.1,0.9,1.4,1.7L49.2,191.1z"/>
	<path class="st2" d="M60.4,194.2c-0.1,0.3-0.3,0.8-0.7,1.1c-0.7,0.8-1.7,1.2-2.8,1.2s-2.1-0.4-2.8-1.2c-0.7-0.8-0.9-1.7-0.9-2.6
		c0-1,0.2-2,0.9-2.6c0.7-0.8,1.7-1.2,2.8-1.2s2.1,0.4,2.8,1.2c0.3,0.4,0.6,0.9,0.7,1.3l-1.4,0.2c-0.1-0.2-0.2-0.6-0.3-0.7
		c-0.3-0.4-1-0.8-1.7-0.8s-1.2,0.2-1.7,0.8c-0.3,0.4-0.4,1.1-0.6,1.8c0,0.7,0.1,1.3,0.6,1.8c0.3,0.4,1,0.8,1.7,0.8s1.2-0.2,1.7-0.8
		c0.1-0.2,0.2-0.4,0.3-0.7L60.4,194.2z"/>
	<path class="st2" d="M62.2,195.3c-0.6-0.8-0.9-1.7-0.9-2.6c0-1,0.2-2,0.9-2.6c0.7-0.8,1.7-1.2,2.8-1.2c1.1,0,2.1,0.4,2.8,1.2
		c0.7,0.8,0.9,1.7,0.9,2.6c0,1-0.2,1.9-0.9,2.6c-0.7,0.8-1.7,1.2-2.8,1.2C63.9,196.5,62.8,196.1,62.2,195.3z M66.6,194.4
		c0.3-0.6,0.4-1.1,0.4-1.8s-0.1-1.3-0.4-1.8c-0.3-0.4-1-0.8-1.7-0.8s-1.2,0.2-1.7,0.8c-0.3,0.4-0.6,1.1-0.6,1.8s0.1,1.3,0.6,1.8
		c0.3,0.4,1,0.8,1.7,0.8S66.3,194.9,66.6,194.4z"/>
	<path class="st2" d="M75.3,194.1c0,0.4-0.1,1-0.4,1.3c-0.3,0.3-0.7,0.7-1.1,0.8c-0.2,0.1-0.4,0.1-0.7,0.1h-3.3v-7.4h3
		c0.2,0,0.4,0,0.7,0.1c0.4,0.1,0.8,0.4,1.1,0.8c0.3,0.3,0.4,0.8,0.4,1.2s-0.1,0.9-0.4,1.2l0,0c0.1,0.1,0.2,0.2,0.3,0.4
		C75.1,193.1,75.3,193.5,75.3,194.1z M71.2,190.2v1.5h1.7c0.1,0,0.3-0.1,0.4-0.3c0.1-0.1,0.2-0.3,0.2-0.4c0-0.2-0.1-0.4-0.2-0.6
		s-0.3-0.2-0.6-0.2H71.2z M73.5,193.3c-0.2-0.2-0.4-0.2-0.7-0.2h-1.7v1.9h1.7c0.2,0,0.4-0.1,0.6-0.2c0.2-0.2,0.3-0.4,0.3-0.7
		C73.9,193.8,73.8,193.5,73.5,193.3z"/>
	<path class="st2" d="M78,190.2v1.7h2.9v1.4H78v1.7h3.4v1.4h-4.9V189h4.9v1.4H78V190.2z"/>
	<path class="st2" d="M87.3,193.5l1.3,2.8h-1.5l-1.2-2.5h-1.7v2.5h-1.4v-7.4h3.4c0.2,0,0.6,0,0.8,0.1c0.4,0.1,1,0.4,1.2,0.9
		c0.3,0.4,0.4,1,0.4,1.4c0,0.6-0.2,1-0.4,1.4C88,193.1,87.7,193.3,87.3,193.5z M84.3,192.4h2c0.3,0,0.7-0.2,0.9-0.4
		c0.1-0.2,0.2-0.4,0.2-0.7c0-0.2-0.1-0.6-0.2-0.8c-0.2-0.2-0.6-0.4-0.8-0.4h-2v2.3H84.3z"/>
	<path class="st2" d="M95.1,190.2h-2.3v6.1h-1.4v-6.1H89v-1.4h6.1V190.2z"/>
	<path class="st2" d="M102,193.5c0,0.7-0.2,1.3-0.7,1.9c-0.6,0.7-1.4,1.1-2.3,1.1s-1.8-0.3-2.4-1.1c-0.4-0.6-0.7-1.2-0.7-1.9v-4.6
		h1.4v4.6c0,0.3,0.1,0.8,0.3,1c0.3,0.4,0.8,0.7,1.3,0.7c0.4,0,1-0.2,1.3-0.7c0.2-0.3,0.3-0.7,0.3-1v-4.6h1.4v4.6H102z"/>
	<path class="st2" d="M108.2,193.5l1.3,2.8H108l-1.2-2.5h-1.7v2.5h-1.4v-7.4h3.4c0.2,0,0.6,0,0.8,0.1c0.4,0.1,1,0.4,1.2,0.9
		c0.3,0.4,0.4,1,0.4,1.4c0,0.6-0.2,1-0.4,1.4C108.9,193.1,108.5,193.3,108.2,193.5z M105.1,192.4h2c0.3,0,0.7-0.2,0.9-0.4
		c0.1-0.2,0.2-0.4,0.2-0.7c0-0.2-0.1-0.6-0.2-0.8c-0.2-0.2-0.6-0.4-0.8-0.4h-2.1V192.4z"/>
	<path class="st2" d="M114.6,195.2h-3.1l-0.3,1.1h-1.4l2.3-7.4h2.1l2.3,7.4H115L114.6,195.2z M114.2,193.9l-1.1-3.6l-1.1,3.6H114.2z
		"/>
	<path class="st2" d="M21.2,204.5c0,0.7-0.1,1.2-0.4,1.8c-0.7,1.1-1.9,1.9-3.1,1.9h-2.5v-7.4h2.5c1.2,0,2.5,0.8,3.1,1.9
		C21,203.2,21.2,203.9,21.2,204.5z M19.8,204.5c0-0.4-0.1-0.8-0.2-1.2c-0.3-0.8-1.1-1.2-2-1.2h-1.1v4.9h1.1c0.8,0,1.5-0.4,2-1.2
		C19.7,205.3,19.8,204.9,19.8,204.5z"/>
	<path class="st2" d="M22.9,207.2c-0.6-0.8-0.9-1.7-0.9-2.6s0.2-2,0.9-2.6c0.7-0.8,1.7-1.2,2.8-1.2c1.1,0,2.1,0.4,2.8,1.2
		c0.7,0.8,0.9,1.7,0.9,2.6s-0.2,1.9-0.9,2.6c-0.7,0.9-1.7,1.2-2.8,1.2C24.5,208.4,23.6,208,22.9,207.2z M27.2,206.3
		c0.3-0.4,0.4-1.1,0.4-1.8s-0.1-1.3-0.4-1.8c-0.3-0.6-1-0.8-1.7-0.8s-1.2,0.2-1.7,0.8c-0.3,0.4-0.6,1.1-0.6,1.8s0.1,1.3,0.6,1.8
		c0.3,0.6,1,0.8,1.7,0.8C26.3,207.1,26.9,206.8,27.2,206.3z"/>
	<path class="st2" d="M34.6,203c-0.2-0.3-0.3-0.7-0.7-0.9c-0.2-0.1-0.6-0.2-0.9-0.2c-0.3,0-0.7,0.1-0.9,0.2
		c-0.2,0.1-0.3,0.4-0.3,0.7c0,0.1,0,0.2,0.1,0.3s0.4,0.3,0.9,0.4l1.3,0.3c0.7,0.2,1,0.4,1.3,0.7c0.4,0.4,0.7,1,0.7,1.5
		c0,0.7-0.3,1.3-1,1.8c-0.6,0.3-1.2,0.4-2,0.4c-1,0-1.9-0.2-2.4-1c-0.3-0.4-0.6-1-0.7-1.4l1.4-0.3c0.1,0.3,0.2,0.7,0.3,0.9
		c0.3,0.4,0.9,0.6,1.3,0.6s0.9-0.1,1.1-0.3c0.2-0.2,0.3-0.4,0.3-0.7s-0.1-0.3-0.2-0.6c-0.1-0.1-0.3-0.2-0.7-0.3l-1.4-0.4
		c-0.6-0.1-1.1-0.3-1.4-0.7c-0.4-0.3-0.7-0.9-0.7-1.4c0-0.8,0.6-1.5,1.2-1.9c0.6-0.2,1.1-0.3,1.5-0.3c0.6,0,1.1,0.1,1.5,0.3
		c0.7,0.3,1.1,0.9,1.4,1.7L34.6,203z"/>
	<path class="st2" d="M44,205.7v-4.9h1.4v7.4h-1.2l-3.4-4.9v4.9h-1.4v-7.4h1.2L44,205.7z"/>
	<path class="st2" d="M47.5,207.2c-0.6-0.8-0.9-1.7-0.9-2.6s0.2-2,0.9-2.6c0.7-0.8,1.7-1.2,2.8-1.2c1.1,0,2.1,0.4,2.8,1.2
		c0.7,0.8,0.9,1.7,0.9,2.6s-0.2,1.9-0.9,2.6c-0.7,0.9-1.7,1.2-2.8,1.2C49.2,208.4,48.2,208,47.5,207.2z M51.8,206.3
		c0.3-0.4,0.4-1.1,0.4-1.8s-0.1-1.3-0.4-1.8c-0.3-0.6-1-0.8-1.7-0.8s-1.2,0.2-1.7,0.8c-0.3,0.4-0.6,1.1-0.6,1.8s0.1,1.3,0.6,1.8
		c0.3,0.6,1,0.8,1.7,0.8C50.9,207.1,51.5,206.8,51.8,206.3z"/>
	<path class="st2" d="M59.2,203c-0.2-0.3-0.3-0.7-0.7-0.9c-0.2-0.1-0.6-0.2-0.9-0.2s-0.7,0.1-0.9,0.2c-0.2,0.1-0.3,0.4-0.3,0.7
		c0,0.1,0,0.2,0.1,0.3s0.4,0.3,0.9,0.4l1.3,0.3c0.7,0.2,1,0.4,1.3,0.7c0.4,0.4,0.7,1,0.7,1.5c0,0.7-0.3,1.3-1,1.8
		c-0.6,0.3-1.2,0.4-2,0.4c-1,0-1.9-0.2-2.4-1c-0.3-0.4-0.6-1-0.7-1.4l1.4-0.3c0.1,0.3,0.2,0.7,0.3,0.9c0.3,0.4,0.9,0.6,1.3,0.6
		c0.4,0,0.9-0.1,1.1-0.3c0.2-0.2,0.3-0.4,0.3-0.7s-0.1-0.3-0.2-0.6c-0.1-0.1-0.3-0.2-0.7-0.3l-1.4-0.4c-0.6-0.1-1.1-0.3-1.4-0.7
		c-0.4-0.3-0.7-0.9-0.7-1.4c0-0.8,0.6-1.5,1.2-1.9c0.6-0.2,1.1-0.3,1.5-0.3c0.6,0,1.1,0.1,1.5,0.3c0.7,0.3,1.1,0.9,1.4,1.7L59.2,203
		z"/>
	<path class="st2" d="M66.4,203c-0.2-0.3-0.3-0.7-0.7-0.9c-0.2-0.1-0.6-0.2-0.9-0.2c-0.3,0-0.7,0.1-0.9,0.2
		c-0.2,0.1-0.3,0.4-0.3,0.7c0,0.1,0,0.2,0.1,0.3s0.4,0.3,0.9,0.4l1.3,0.3c0.7,0.2,1,0.4,1.3,0.7c0.4,0.4,0.7,1,0.7,1.5
		c0,0.7-0.3,1.3-1,1.8c-0.6,0.3-1.2,0.4-2,0.4c-1,0-1.9-0.2-2.4-1c-0.3-0.4-0.6-1-0.7-1.4l1.4-0.3c0.1,0.3,0.2,0.7,0.3,0.9
		c0.3,0.4,0.9,0.6,1.3,0.6c0.4,0,0.9-0.1,1.1-0.3c0.2-0.2,0.3-0.4,0.3-0.7s-0.1-0.3-0.2-0.6c-0.1-0.1-0.3-0.2-0.7-0.3l-1.4-0.4
		c-0.6-0.1-1.1-0.3-1.4-0.7c-0.4-0.3-0.7-0.9-0.7-1.4c0-0.8,0.6-1.5,1.2-1.9c0.6-0.2,1.1-0.3,1.5-0.3c0.6,0,1.1,0.1,1.5,0.3
		c0.7,0.3,1.1,0.9,1.4,1.7L66.4,203z"/>
	<path class="st2" d="M69.5,207.2c-0.6-0.8-0.9-1.7-0.9-2.6s0.2-2,0.9-2.6c0.7-0.8,1.7-1.2,2.8-1.2c1.1,0,2.1,0.4,2.8,1.2
		c0.7,0.8,0.9,1.7,0.9,2.6s-0.2,1.9-0.9,2.6c-0.7,0.9-1.7,1.2-2.8,1.2S70.1,208,69.5,207.2z M73.8,206.3c0.3-0.4,0.4-1.1,0.4-1.8
		s-0.1-1.3-0.4-1.8c-0.3-0.6-1-0.8-1.7-0.8s-1.2,0.2-1.7,0.8c-0.3,0.4-0.4,1.1-0.6,1.8c0,0.7,0.1,1.3,0.6,1.8c0.3,0.6,1,0.8,1.7,0.8
		C72.9,207.1,73.4,206.8,73.8,206.3z"/>
	<path class="st2" d="M81.2,203c-0.2-0.3-0.3-0.7-0.7-0.9c-0.2-0.1-0.6-0.2-0.9-0.2s-0.7,0.1-0.9,0.2c-0.2,0.1-0.3,0.4-0.3,0.7
		c0,0.1,0,0.2,0.1,0.3s0.4,0.3,0.9,0.4l1.3,0.3c0.7,0.2,1,0.4,1.3,0.7c0.4,0.4,0.7,1,0.7,1.5c0,0.7-0.3,1.3-1,1.8
		c-0.6,0.3-1.2,0.4-2,0.4c-1,0-1.9-0.2-2.4-1c-0.3-0.4-0.6-1-0.7-1.4l1.4-0.3c0.1,0.3,0.2,0.7,0.3,0.9c0.3,0.4,0.9,0.6,1.3,0.6
		c0.4,0,0.9-0.1,1.1-0.3c0.2-0.2,0.3-0.4,0.3-0.7s-0.1-0.3-0.2-0.6c-0.2-0.1-0.3-0.2-0.7-0.3l-1.4-0.4c-0.6-0.1-1.1-0.3-1.4-0.7
		c-0.4-0.3-0.7-0.9-0.7-1.4c0-0.8,0.6-1.5,1.2-1.9c0.6-0.2,1.1-0.3,1.5-0.3c0.6,0,1.1,0.1,1.5,0.3c0.7,0.3,1.1,0.9,1.4,1.7L81.2,203
		z"/>
	<path class="st2" d="M90,203c-0.2-0.3-0.3-0.7-0.7-0.9c-0.2-0.1-0.6-0.2-0.9-0.2s-0.7,0.1-0.9,0.2c-0.2,0.1-0.3,0.4-0.3,0.7
		c0,0.1,0,0.2,0.1,0.3c0.1,0.1,0.4,0.3,0.9,0.4l1.3,0.3c0.7,0.2,1,0.4,1.3,0.7c0.4,0.4,0.7,1,0.7,1.5c0,0.7-0.3,1.3-1,1.8
		c-0.6,0.3-1.2,0.4-2,0.4c-1,0-1.9-0.2-2.4-1c-0.3-0.4-0.6-1-0.7-1.4l1.4-0.3c0.1,0.3,0.2,0.7,0.3,0.9c0.3,0.4,0.9,0.6,1.3,0.6
		s0.9-0.1,1.1-0.3c0.2-0.2,0.3-0.4,0.3-0.7s-0.1-0.3-0.2-0.6c-0.2-0.1-0.3-0.2-0.7-0.3l-1.4-0.4c-0.6-0.1-1.1-0.3-1.4-0.7
		c-0.4-0.3-0.7-0.9-0.7-1.4c0-0.8,0.6-1.5,1.2-1.9c0.6-0.2,1.1-0.3,1.5-0.3c0.6,0,1.1,0.1,1.5,0.3c0.7,0.3,1.1,0.9,1.4,1.7L90,203z"
		/>
	<path class="st2" d="M94,202.1v1.7h2.9v1.4H94v1.7h3.4v1.4h-4.9v-7.4h4.9v1.4H94V202.1z"/>
	<path class="st2" d="M103.5,205.5l1.3,2.8h-1.5l-1.2-2.5h-1.7v2.5h-1.4v-7.4h3.4c0.2,0,0.6,0,0.8,0.1c0.4,0.1,1,0.4,1.2,0.9
		c0.3,0.4,0.4,1,0.4,1.4c0,0.4-0.2,1-0.4,1.4C104.1,205,103.8,205.2,103.5,205.5z M100.4,204.3h2c0.3,0,0.7-0.1,0.9-0.4
		c0.1-0.2,0.2-0.4,0.2-0.7c0-0.2-0.1-0.6-0.2-0.8c-0.2-0.2-0.6-0.4-0.8-0.4h-2v2.3H100.4z"/>
	<path class="st2" d="M105,200.8h1.4l1.9,6.1l1.9-6.1h1.4l-2.3,7.4h-2L105,200.8z"/>
	<path class="st2" d="M113.8,200.8v7.4h-1.4v-7.4H113.8z"/>
	<path class="st2" d="M120.6,205.7l1.4,0.4c-0.1,0.3-0.3,0.8-0.7,1.1c-0.7,0.8-1.5,1.1-2.4,1.2l-0.1,0.2c0.2,0.1,0.3,0.2,0.4,0.4
		c0.2,0.3,0.2,0.9,0,1.2c-0.2,0.3-0.7,0.6-1.1,0.4c-0.2,0-0.4-0.1-0.6-0.2l0.3-0.8c0.1,0,0.2,0.1,0.3,0.1c0.1,0,0.2,0,0.2-0.1
		s0.1-0.1,0-0.2c0-0.2-0.3-0.3-0.7-0.3l0.2-0.8c-0.9-0.1-1.8-0.6-2.2-1.2c-0.7-0.8-0.9-1.7-0.9-2.6s0.2-2,0.9-2.6
		c0.7-0.8,1.7-1.2,2.8-1.2c1.1,0,2.1,0.4,2.8,1.2c0.3,0.4,0.6,0.9,0.7,1.3l-1.4,0.2c-0.1-0.2-0.2-0.6-0.3-0.7
		c-0.3-0.6-1-0.8-1.7-0.8c-0.7,0-1.2,0.2-1.7,0.8c-0.3,0.4-0.4,1.1-0.6,1.8c0,0.7,0.1,1.3,0.6,1.8c0.3,0.6,1,0.8,1.7,0.8
		c0.7,0,1.2-0.2,1.7-0.8C120.3,206.1,120.5,205.9,120.6,205.7z"/>
	<path class="st2" d="M123.7,207.2c-0.6-0.8-0.9-1.7-0.9-2.6s0.2-2,0.9-2.6c0.7-0.8,1.7-1.2,2.8-1.2c1.1,0,2.1,0.4,2.8,1.2
		c0.7,0.8,0.9,1.7,0.9,2.6s-0.2,1.9-0.9,2.6c-0.7,0.9-1.7,1.2-2.8,1.2C125.4,208.4,124.3,208,123.7,207.2z M128.1,206.3
		c0.3-0.4,0.4-1.1,0.4-1.8s-0.1-1.3-0.4-1.8c-0.3-0.6-1-0.8-1.7-0.8s-1.2,0.2-1.7,0.8c-0.3,0.4-0.6,1.1-0.6,1.8s0.1,1.3,0.6,1.8
		c0.3,0.6,1,0.8,1.7,0.8C127.1,207.1,127.7,206.8,128.1,206.3z"/>
	<path class="st2" d="M135.3,203c-0.2-0.3-0.3-0.7-0.7-0.9c-0.2-0.1-0.6-0.2-0.9-0.2c-0.3,0-0.7,0.1-0.9,0.2
		c-0.2,0.1-0.3,0.4-0.3,0.7c0,0.1,0,0.2,0.1,0.3s0.4,0.3,0.9,0.4l1.3,0.3c0.7,0.2,1,0.4,1.3,0.7c0.4,0.4,0.7,1,0.7,1.5
		c0,0.7-0.3,1.3-1,1.8c-0.6,0.3-1.2,0.4-2,0.4c-1,0-1.9-0.2-2.4-1c-0.3-0.4-0.6-1-0.7-1.4l1.4-0.3c0.1,0.3,0.2,0.7,0.3,0.9
		c0.3,0.4,0.9,0.6,1.3,0.6c0.4,0,0.9-0.1,1.1-0.3c0.2-0.2,0.3-0.4,0.3-0.7s-0.1-0.3-0.2-0.6c-0.1-0.1-0.3-0.2-0.7-0.3l-1.4-0.4
		c-0.6-0.1-1.1-0.3-1.4-0.7c-0.4-0.3-0.7-0.9-0.7-1.4c0-0.8,0.6-1.5,1.2-1.9c0.6-0.2,1.1-0.3,1.5-0.3c0.6,0,1.1,0.1,1.5,0.3
		c0.7,0.3,1.1,0.9,1.4,1.7L135.3,203z"/>
</g>
</svg>
